<?xml version="1.0" encoding="UTF-8" ?>
<!DOCTYPE svg PUBLIC "-//W3C//DTD SVG 1.1//EN" "http://www.w3.org/Graphics/SVG/1.1/DTD/svg11.dtd">
<svg width="902pt" height="815pt" viewBox="0 0 902 815" version="1.1" xmlns="http://www.w3.org/2000/svg">
<g id="#2d2c31ff">
<path fill="#2d2c31" opacity="1.00" d=" M 694.50 0.00 L 715.13 0.00 C 720.00 0.79 725.14 2.94 727.42 7.63 C 729.57 12.38 730.59 17.88 729.23 23.00 C 727.25 33.04 722.57 42.20 718.46 51.48 C 723.04 54.49 724.84 60.93 721.55 65.54 C 717.20 71.51 712.36 77.13 708.30 83.32 C 698.34 97.65 691.61 113.81 683.23 129.04 C 679.27 136.81 674.63 144.21 670.77 152.04 C 685.04 164.95 695.40 181.60 703.00 199.14 C 705.15 205.18 705.95 211.65 706.13 218.03 C 706.39 222.76 704.26 227.84 700.00 230.20 C 691.34 234.88 681.46 237.27 671.62 237.07 C 672.89 245.05 675.03 253.01 679.19 260.00 C 684.34 268.28 691.92 274.65 697.53 282.56 C 700.26 286.22 699.40 292.16 695.13 294.24 C 691.47 296.27 687.51 294.07 684.42 292.05 C 686.72 298.02 688.24 304.25 690.16 310.35 C 693.69 322.83 698.07 335.15 699.90 348.04 C 700.93 353.11 698.52 358.40 694.71 361.71 C 691.44 364.59 686.13 364.99 682.57 362.44 C 679.26 360.12 676.50 356.87 675.28 352.98 C 673.36 346.98 671.42 340.98 669.54 334.97 C 669.40 338.66 669.69 342.38 669.25 346.06 C 668.62 348.27 666.85 349.90 665.47 351.65 C 662.85 351.63 660.23 351.62 657.62 351.62 C 656.32 349.89 655.08 348.13 653.88 346.33 C 650.69 346.16 647.47 345.89 644.48 344.67 C 643.60 353.32 639.71 361.79 641.53 370.57 C 642.22 375.51 641.98 380.53 642.70 385.48 C 643.43 405.06 645.01 424.61 647.12 444.11 C 648.53 454.38 650.26 464.62 651.00 474.97 C 651.42 482.01 652.98 488.94 653.15 496.01 C 660.67 496.16 668.98 494.89 675.65 499.21 C 680.59 502.30 681.57 509.54 678.19 514.12 C 674.75 518.97 670.35 523.01 666.68 527.67 C 679.49 550.15 692.16 572.72 704.96 595.21 C 708.65 571.88 711.43 548.40 714.90 525.03 C 715.17 520.89 718.58 516.78 722.97 517.01 C 731.34 516.95 739.71 517.03 748.09 516.98 C 752.08 516.53 755.91 519.97 756.02 523.95 C 756.27 528.25 755.21 532.47 754.70 536.72 C 748.38 581.17 742.21 625.64 735.85 670.09 C 735.40 674.87 730.73 678.13 726.13 677.98 C 719.39 678.01 712.64 678.10 705.91 677.93 C 701.28 677.83 697.30 674.70 695.20 670.73 C 680.52 645.41 665.98 620.02 651.27 594.73 C 650.33 605.54 648.34 616.23 646.99 627.00 C 644.90 641.33 643.12 655.70 640.85 670.00 C 640.10 675.06 634.98 678.34 630.06 678.01 C 621.71 677.75 613.27 678.63 604.98 677.36 C 605.02 689.58 604.98 701.80 605.01 714.02 C 605.05 719.38 603.96 724.66 604.02 730.02 C 604.01 735.03 603.19 739.98 602.87 744.97 C 602.71 748.60 599.87 752.22 596.08 752.38 C 593.07 752.77 590.26 750.49 589.36 747.72 C 582.45 727.42 571.90 708.67 561.11 690.22 C 560.87 701.45 561.44 712.72 560.20 723.91 C 560.04 739.00 558.93 754.06 557.32 769.05 C 557.15 773.53 552.51 777.52 548.06 775.85 C 544.05 774.64 542.64 769.99 543.20 766.22 C 543.90 759.81 543.86 753.36 543.20 746.96 C 542.90 729.48 537.82 712.45 537.81 694.95 C 536.51 684.02 537.02 672.99 537.27 662.03 C 536.02 657.44 533.30 653.43 531.47 649.07 C 512.13 673.09 492.01 696.48 472.68 720.51 C 461.32 734.22 450.61 748.46 439.19 762.11 C 425.70 778.37 412.95 795.23 399.60 811.60 C 396.45 815.88 389.09 814.81 387.45 809.72 C 385.18 799.64 386.23 789.25 386.00 779.01 C 386.21 768.03 385.44 757.00 386.68 746.07 C 387.39 739.34 386.51 732.55 387.46 725.84 C 388.22 720.60 387.76 715.28 388.55 710.05 C 389.55 703.00 388.50 695.87 389.34 688.81 C 389.77 685.22 390.01 681.61 390.08 677.99 C 385.09 677.90 380.09 678.27 375.11 677.81 C 369.89 677.31 365.25 672.41 365.97 667.01 C 367.04 656.59 368.92 646.25 370.18 635.85 C 367.32 637.72 364.15 639.23 361.71 641.68 C 359.93 651.17 358.99 660.85 357.49 670.41 C 356.92 674.49 353.27 677.75 349.15 677.90 C 343.77 678.22 338.38 677.87 333.00 678.03 C 329.68 677.95 326.18 678.38 323.06 677.02 C 320.62 676.00 319.28 673.57 317.73 671.59 C 314.36 673.56 311.08 675.68 308.04 678.14 C 292.60 690.22 277.40 702.66 263.39 716.39 C 260.32 719.21 257.82 724.11 252.97 723.58 C 249.87 723.80 247.45 720.92 246.85 718.12 C 246.56 714.40 248.42 711.01 249.58 707.59 C 253.79 696.00 258.14 684.45 262.55 672.93 C 258.25 669.26 254.51 664.81 252.53 659.46 C 250.44 654.60 250.98 649.21 250.91 644.06 C 250.76 636.55 253.79 629.24 258.31 623.35 C 267.11 612.66 280.13 606.22 293.53 603.47 C 284.98 601.40 276.26 599.90 267.89 597.21 C 263.08 595.29 262.52 589.76 262.95 585.28 C 255.78 581.06 248.88 576.34 242.76 570.69 C 247.73 576.65 252.25 583.21 254.34 590.79 C 257.35 601.67 258.16 613.39 255.43 624.42 C 253.51 629.94 247.08 630.94 241.99 630.95 C 221.60 631.01 201.20 630.93 180.81 630.98 C 180.85 635.69 182.07 641.17 186.62 643.55 C 194.84 648.16 205.23 645.86 212.48 640.45 C 216.21 637.83 218.90 633.66 223.35 632.16 C 228.83 630.92 233.65 634.44 238.43 636.51 C 242.26 638.47 247.02 639.72 249.27 643.73 C 251.11 647.48 250.13 652.26 247.27 655.24 C 240.07 663.26 231.63 670.49 221.58 674.67 C 212.86 678.38 203.33 679.33 193.97 680.02 C 181.95 679.86 169.54 677.52 159.44 670.66 C 145.30 661.63 137.08 644.65 137.94 628.00 C 135.94 595.16 161.32 562.60 194.12 557.81 C 207.53 555.58 221.79 557.46 233.77 564.05 C 228.79 560.09 223.68 556.28 218.93 552.04 C 207.43 541.85 195.39 531.53 188.20 517.66 C 185.36 513.24 183.48 507.72 185.44 502.56 C 187.67 497.34 193.30 495.17 198.16 493.11 C 211.68 487.43 225.63 482.82 239.68 478.65 C 249.07 475.35 258.46 472.04 267.94 468.98 C 271.03 468.02 274.19 466.93 276.58 464.64 C 283.69 457.95 290.95 451.43 298.06 444.75 C 295.64 443.70 293.46 442.20 291.65 440.28 C 289.73 444.46 285.92 448.11 281.07 448.13 C 273.89 449.01 267.24 442.04 268.36 434.92 C 269.82 424.47 272.92 414.32 276.22 404.32 C 277.44 399.71 277.26 394.80 276.68 390.11 C 275.95 385.23 269.44 383.28 270.06 378.00 C 271.07 369.65 272.26 361.31 273.68 353.02 C 274.83 342.04 275.23 331.01 276.46 320.04 C 269.13 320.19 261.64 320.47 254.49 318.51 C 250.74 317.58 247.41 314.03 247.89 309.97 C 247.88 306.65 250.65 303.51 253.96 303.16 C 261.08 302.26 268.24 300.94 274.80 297.93 C 274.49 292.71 277.55 288.37 279.95 284.03 C 277.92 282.01 275.82 280.00 274.27 277.58 C 272.67 275.16 273.26 272.10 272.59 269.41 C 270.85 266.03 267.63 263.09 267.93 258.98 C 267.48 255.69 269.78 253.10 271.67 250.73 C 248.74 232.70 227.73 212.39 207.76 191.17 C 180.76 161.00 155.35 129.11 135.06 93.98 C 130.75 87.10 130.47 77.29 135.79 70.86 C 138.63 67.34 142.85 65.08 147.26 64.24 C 156.37 62.49 165.70 63.66 174.87 62.44 C 181.56 61.56 188.34 62.35 195.05 61.73 C 199.38 61.33 203.71 60.91 208.06 60.98 C 224.70 61.07 241.35 60.92 257.99 61.05 C 264.99 61.61 271.99 62.26 279.02 61.98 C 295.00 62.77 310.88 64.91 326.83 66.13 C 327.05 63.21 326.09 59.66 328.45 57.38 C 330.79 54.33 335.65 53.91 338.62 56.23 C 342.63 59.67 344.60 65.18 349.12 68.00 C 354.72 66.65 361.03 65.54 365.05 61.02 C 370.63 55.36 376.43 49.92 382.32 44.58 C 385.11 41.82 389.47 41.76 393.07 42.61 C 395.57 43.35 398.32 46.16 400.88 44.04 C 407.69 39.24 414.18 33.96 421.27 29.58 C 425.34 26.84 430.44 27.59 435.03 28.06 C 441.36 28.96 446.19 33.64 451.97 35.89 C 476.46 40.28 501.69 39.90 525.95 45.79 C 529.35 46.63 532.35 44.39 535.46 43.45 C 539.63 41.87 544.39 42.74 548.36 40.54 C 567.36 31.21 587.30 23.98 607.34 17.24 C 632.24 9.19 657.93 3.39 684.02 1.10 C 687.53 0.97 691.03 0.61 694.50 0.00 M 667.04 9.68 C 641.78 13.37 617.12 20.38 593.17 29.09 C 576.18 35.27 559.25 41.86 543.35 50.51 C 559.35 78.61 581.81 102.16 603.17 126.17 C 616.37 129.65 628.73 135.60 641.50 140.33 C 649.31 143.52 656.15 148.62 662.76 153.78 C 664.04 150.48 665.06 147.08 665.93 143.65 C 665.96 144.16 666.02 145.18 666.05 145.70 C 671.86 134.71 678.23 124.02 683.61 112.81 C 691.59 96.17 700.77 79.98 712.54 65.71 C 714.21 63.78 715.65 61.68 716.88 59.45 C 715.88 58.68 714.89 57.91 713.91 57.14 C 711.31 59.59 709.20 62.57 706.16 64.53 C 709.81 50.46 718.02 38.07 721.77 24.02 C 722.97 19.90 722.39 15.56 722.44 11.33 L 722.36 11.52 C 720.67 8.99 718.21 6.70 714.97 6.77 C 698.95 5.75 682.89 7.48 667.04 9.68 M 444.63 43.50 C 438.27 45.92 431.72 47.96 424.99 49.05 C 420.92 49.78 417.08 47.92 413.14 47.29 C 408.55 49.05 404.49 51.97 400.03 54.04 C 392.23 57.92 385.23 63.33 377.09 66.51 L 376.66 66.89 C 367.03 69.54 357.51 72.60 347.96 75.49 C 344.09 73.84 341.62 70.09 338.94 67.00 C 336.98 64.91 335.92 61.69 333.01 60.72 C 333.03 65.42 335.04 69.72 336.84 73.95 C 312.62 71.31 288.39 68.48 264.02 68.00 C 229.68 66.42 195.27 67.76 160.99 69.85 C 154.54 69.89 147.03 69.27 141.89 73.94 C 137.41 77.89 137.24 84.91 140.26 89.78 C 152.45 111.29 166.94 131.41 182.19 150.84 C 199.15 172.06 217.10 192.53 236.76 211.31 C 252.23 226.52 268.97 240.36 286.08 253.69 C 282.33 255.11 277.28 254.09 274.51 257.43 C 273.30 261.47 277.95 263.56 279.07 266.96 C 280.14 270.04 283.61 270.83 286.41 271.51 C 289.68 272.23 292.73 273.74 296.05 274.24 C 297.39 272.64 297.96 270.57 298.88 268.73 C 302.37 261.33 306.70 254.37 310.97 247.40 C 315.02 240.83 319.38 234.46 323.95 228.25 C 323.07 228.24 321.30 228.23 320.42 228.23 C 320.49 221.32 323.18 214.78 323.93 207.97 C 323.51 204.93 322.10 202.15 321.03 199.31 C 320.29 199.03 318.80 198.47 318.06 198.19 C 319.12 194.31 320.47 190.52 321.73 186.71 L 321.84 186.72 C 322.88 184.21 323.38 181.26 325.50 179.37 C 328.72 176.53 329.62 172.09 331.51 168.39 C 339.02 137.76 350.82 108.39 362.87 79.31 C 362.39 79.65 361.43 80.35 360.95 80.70 C 360.57 80.03 359.80 78.69 359.42 78.03 C 363.33 75.26 367.40 72.73 371.59 70.41 C 367.87 82.17 361.88 93.06 357.83 104.68 C 365.13 97.58 370.72 88.69 379.05 82.67 C 373.56 90.20 366.69 96.59 360.91 103.90 C 358.89 106.73 355.32 109.14 355.61 113.00 C 355.84 119.74 353.96 126.26 353.30 132.92 C 352.75 138.67 351.65 144.33 350.78 150.03 C 349.86 155.67 349.79 161.40 348.74 167.02 C 347.12 175.24 347.43 183.72 348.27 192.01 C 348.74 197.38 347.81 202.88 349.19 208.17 C 349.89 205.13 350.51 202.08 351.23 199.05 C 352.03 205.12 351.76 211.29 350.76 217.33 C 361.65 210.87 371.47 202.68 382.80 196.93 C 388.71 194.09 393.44 189.45 399.09 186.19 C 404.01 182.97 409.41 180.55 414.33 177.33 C 430.60 165.34 448.60 156.01 466.36 146.47 C 477.35 140.43 489.18 136.11 501.12 132.38 C 514.40 127.55 528.17 124.27 541.94 121.13 C 552.21 118.92 562.87 120.54 573.16 118.46 C 561.56 106.85 550.58 94.55 537.73 84.28 C 523.57 73.23 509.01 62.59 493.39 53.67 C 483.16 47.89 471.27 46.97 460.19 43.76 C 455.04 43.31 449.62 41.29 444.63 43.50 M 528.07 126.14 C 510.93 130.68 494.13 136.62 477.97 143.94 C 453.07 155.44 430.43 171.18 408.64 187.70 C 398.38 195.70 387.82 203.47 378.75 212.84 C 382.66 214.51 386.43 216.64 390.64 217.50 C 399.65 219.28 408.46 222.35 417.75 222.38 C 430.47 223.89 443.27 222.85 456.02 223.56 C 459.29 223.58 462.63 224.00 465.84 223.25 C 468.84 221.21 471.79 219.07 474.66 216.84 C 478.81 212.78 480.28 206.95 483.13 202.04 C 490.64 189.08 500.91 177.93 512.07 168.03 C 513.04 167.08 514.27 166.45 515.64 166.35 C 500.21 181.38 487.52 198.94 475.92 217.01 C 474.83 218.95 472.93 220.08 470.92 220.85 C 469.87 222.67 468.78 224.84 466.44 225.14 C 447.28 227.44 428.00 225.30 408.88 223.62 C 397.56 222.74 386.34 220.23 375.85 215.87 C 374.08 214.66 372.93 216.95 371.77 217.87 C 367.02 223.10 361.25 227.31 356.79 232.81 C 353.76 236.45 350.00 239.36 346.27 242.24 C 340.37 246.66 335.74 252.45 330.80 257.85 C 321.61 267.63 312.52 277.51 303.34 287.30 C 299.80 290.84 295.35 293.26 291.59 296.55 C 280.23 303.53 267.51 309.00 253.99 309.45 C 254.28 310.54 254.40 311.93 255.80 312.09 C 265.17 314.45 275.06 314.30 284.56 312.81 C 280.72 328.58 282.52 345.05 278.97 360.87 C 278.33 367.40 276.39 373.94 276.97 380.52 C 279.71 375.87 278.98 370.10 280.17 364.97 C 281.63 372.69 278.45 381.84 283.76 388.45 C 283.27 394.21 283.75 400.03 282.83 405.75 C 279.87 411.64 277.96 418.19 276.98 424.65 C 276.32 428.11 275.44 431.52 274.82 434.99 C 273.84 438.20 276.57 442.04 280.02 441.81 C 283.31 442.21 285.78 439.11 285.95 436.07 C 290.27 410.72 301.00 386.86 314.83 365.32 C 317.05 361.40 319.96 357.94 322.33 354.13 C 322.45 354.46 322.69 355.12 322.80 355.45 C 321.03 364.83 324.69 375.41 332.06 381.57 C 332.22 382.83 331.97 384.04 331.31 385.20 C 331.66 385.63 332.36 386.48 332.71 386.91 C 327.00 400.52 320.72 414.49 309.85 424.84 C 306.09 428.48 301.40 430.91 297.33 434.13 C 297.24 435.28 297.20 436.44 297.20 437.60 C 299.09 437.96 301.02 438.65 302.97 438.22 C 310.30 436.79 317.47 433.98 323.39 429.34 C 327.84 426.41 332.53 423.50 335.52 418.95 C 339.79 415.40 340.79 409.69 342.55 404.72 C 351.54 403.07 359.81 398.96 367.97 395.02 C 372.37 391.99 377.32 388.32 383.00 389.35 C 391.56 390.55 400.19 391.21 408.76 392.28 C 409.57 395.06 411.39 397.31 413.45 399.27 C 411.65 405.76 407.98 412.10 408.64 419.01 C 408.47 421.13 411.11 421.09 412.47 421.80 C 412.73 423.16 413.00 424.52 413.29 425.89 C 411.43 434.00 408.93 442.00 407.87 450.28 C 402.27 443.03 397.69 434.96 391.80 427.99 C 379.99 454.70 368.74 481.68 356.17 508.05 C 348.05 524.94 338.90 541.29 329.26 557.35 C 341.08 558.25 353.76 561.75 361.39 571.49 C 368.10 579.33 369.01 590.28 367.56 600.10 C 365.91 610.94 364.44 621.80 362.86 632.65 C 365.77 630.70 369.08 629.21 371.54 626.68 C 374.27 606.79 377.04 586.89 379.91 567.02 C 380.15 562.49 384.42 558.56 388.99 558.98 C 397.34 559.04 405.69 558.89 414.04 559.05 C 418.19 559.07 420.81 562.77 422.44 566.14 C 431.74 559.89 443.04 555.35 454.42 557.34 C 457.55 557.99 460.71 559.90 461.80 563.06 C 462.73 568.41 461.45 573.79 460.74 579.09 C 460.07 583.40 459.67 587.75 458.77 592.02 C 458.11 595.14 455.34 598.09 452.00 598.02 C 446.98 598.35 441.98 597.71 436.98 597.41 C 430.54 598.01 424.41 601.28 420.04 606.00 C 417.47 608.69 417.14 612.54 416.79 616.06 C 414.55 632.02 412.28 647.97 410.10 663.93 C 409.56 667.63 409.35 671.77 406.81 674.74 C 404.17 677.62 400.04 678.02 396.37 678.16 C 395.17 713.11 391.96 747.99 392.25 782.99 C 392.38 791.50 392.28 800.05 393.59 808.48 C 406.92 792.46 419.40 775.74 432.70 759.69 C 445.19 744.81 456.86 729.28 469.26 714.33 C 488.57 690.34 508.73 667.02 527.96 642.98 C 527.25 638.93 524.57 635.40 523.03 631.59 C 513.45 643.56 504.37 655.92 494.98 668.04 C 491.89 672.27 488.61 677.38 482.82 677.80 C 473.88 678.27 464.89 677.92 455.93 677.99 C 450.99 678.13 445.35 674.41 445.91 668.96 C 445.43 664.09 448.88 660.19 451.57 656.53 C 467.65 636.40 483.67 616.20 499.81 596.11 C 491.22 586.04 482.66 575.89 472.89 566.93 C 471.05 565.17 468.98 563.41 468.14 560.92 C 461.16 538.54 451.13 517.10 438.39 497.42 C 438.96 493.26 438.92 488.97 440.43 485.01 C 441.05 480.47 438.38 476.34 437.66 471.98 C 438.54 467.31 440.57 462.36 438.25 457.76 C 435.43 452.23 431.03 447.61 426.31 443.63 C 420.71 439.28 419.20 431.92 417.04 425.55 C 422.18 423.13 429.41 424.29 432.86 419.02 C 434.60 411.49 430.51 404.30 428.91 397.10 L 431.00 397.51 C 434.05 398.97 437.66 400.26 439.27 403.49 C 441.53 408.45 442.90 413.80 445.71 418.50 C 447.87 425.09 450.85 431.42 453.00 438.03 C 456.99 450.66 462.47 462.75 467.01 475.18 L 467.30 475.26 C 469.84 482.44 472.33 489.67 475.34 496.67 C 480.05 503.64 485.33 510.23 490.37 516.98 C 496.94 517.06 503.51 516.90 510.08 517.05 C 514.12 517.54 516.76 521.13 518.30 524.60 C 521.60 531.85 525.24 538.94 528.49 546.22 L 528.65 546.13 C 530.22 549.86 532.01 553.50 533.74 557.17 C 539.89 549.00 546.40 541.08 552.13 532.60 L 552.52 532.41 C 554.06 530.49 555.60 528.57 557.04 526.56 C 559.73 523.20 562.05 519.02 566.23 517.34 C 570.44 516.58 574.76 517.15 579.02 517.00 C 586.34 517.14 593.68 516.73 600.99 517.16 C 607.48 519.05 608.27 527.64 604.52 532.43 C 596.00 543.72 586.62 554.38 578.12 565.67 C 571.10 573.85 564.61 582.47 557.71 590.75 C 556.99 591.70 556.05 592.57 555.71 593.75 C 558.87 597.77 562.36 601.53 565.79 605.32 L 565.69 605.66 C 570.52 610.64 573.64 617.35 573.29 624.40 L 573.57 624.41 C 574.28 628.45 574.58 632.70 576.59 636.38 C 581.00 644.66 585.21 653.04 589.58 661.35 C 591.30 664.69 593.07 668.68 591.40 672.41 C 590.37 675.18 587.69 676.68 585.09 677.69 C 588.27 690.86 590.00 704.31 592.69 717.58 C 594.41 727.38 595.13 737.31 595.54 747.25 C 595.91 746.14 596.23 745.03 596.49 743.91 C 599.15 718.36 598.59 692.63 598.54 666.98 C 598.38 643.75 598.61 620.53 598.18 597.31 C 602.52 591.70 607.70 586.69 611.56 580.74 C 614.27 562.29 616.85 543.79 619.43 525.31 C 619.87 521.88 621.78 518.33 625.25 517.21 C 629.64 516.69 634.08 517.12 638.50 517.00 C 641.72 516.97 644.94 516.97 648.18 516.97 C 651.12 516.98 654.08 516.81 657.01 517.17 C 659.55 517.62 661.28 519.77 663.19 521.32 C 666.70 517.41 670.65 513.79 673.43 509.31 C 675.13 506.31 671.58 503.76 668.96 503.27 C 661.85 501.75 654.49 502.94 647.29 502.29 C 646.04 488.52 644.42 474.78 642.95 461.03 C 638.22 431.86 637.14 402.27 635.31 372.83 C 634.78 368.60 633.89 364.26 634.90 360.04 C 637.43 348.20 639.34 336.24 641.75 324.38 C 644.48 329.40 646.42 334.81 649.20 339.81 C 650.33 339.96 652.13 339.73 652.24 338.27 C 652.54 333.55 652.10 328.80 651.34 324.14 C 649.28 312.11 647.34 300.04 646.58 287.85 C 648.59 287.11 650.68 286.52 652.58 285.49 C 654.15 284.26 655.02 282.40 656.07 280.75 C 661.61 296.11 669.48 310.47 675.61 325.58 C 679.67 335.29 684.53 344.95 685.56 355.59 C 685.89 358.13 690.18 358.34 690.73 355.83 C 691.16 352.16 689.98 348.57 689.71 344.94 C 689.09 335.19 685.75 325.92 683.29 316.55 C 678.77 299.56 672.90 282.94 669.48 265.67 C 673.93 272.04 678.63 278.32 684.53 283.43 C 687.10 285.58 689.65 287.97 692.93 288.98 C 692.68 287.49 692.25 286.01 691.19 284.89 C 685.16 277.54 678.12 270.95 673.14 262.79 C 665.93 250.23 664.97 235.46 661.86 221.60 C 663.48 224.41 663.83 228.68 667.09 230.06 C 677.78 231.88 688.61 228.73 698.12 223.92 C 696.52 219.57 695.18 215.11 693.33 210.85 C 693.03 205.25 689.68 200.43 687.65 195.34 C 679.68 181.57 670.41 167.93 657.09 158.81 C 649.81 153.69 642.63 148.36 634.81 144.10 C 622.51 138.29 609.83 133.31 597.03 128.74 C 587.85 126.35 578.39 125.16 568.99 123.96 C 555.36 123.02 541.36 122.32 528.07 126.14 M 294.13 428.20 C 302.10 423.48 309.35 417.30 314.24 409.35 C 317.84 403.42 321.47 397.45 323.93 390.94 C 324.73 388.71 325.58 385.96 324.08 383.83 C 321.76 380.37 319.43 376.90 317.73 373.08 C 306.86 389.97 299.06 408.75 294.13 428.20 M 473.64 523.96 C 474.55 526.66 475.81 529.21 477.15 531.72 C 487.38 552.13 498.22 572.23 508.20 592.77 C 509.39 594.67 507.89 596.58 506.76 598.06 C 489.47 619.66 472.27 641.33 455.06 662.98 C 453.88 665.26 450.19 668.85 453.29 670.95 C 463.45 671.58 473.70 671.24 483.89 671.08 C 488.48 666.19 492.13 660.52 496.29 655.28 C 502.50 647.41 508.39 639.29 514.61 631.42 C 517.76 627.45 520.46 623.11 524.09 619.55 C 527.05 623.57 528.77 628.31 531.06 632.71 C 535.67 643.34 541.36 653.45 545.93 664.09 C 547.01 666.58 548.33 668.98 550.05 671.10 C 561.79 671.34 573.54 671.38 585.28 671.08 C 585.76 666.59 582.72 663.01 580.89 659.23 C 569.80 637.37 558.10 615.83 547.12 593.92 C 551.34 587.37 556.75 581.68 561.45 575.47 C 574.29 559.53 587.17 543.62 599.95 527.64 C 600.05 526.89 600.26 525.40 600.36 524.65 C 600.01 524.24 599.32 523.41 598.97 523.00 C 589.62 523.02 580.27 522.96 570.93 523.01 C 568.75 522.82 566.87 524.24 565.78 526.00 C 556.89 538.03 547.70 549.81 538.71 561.76 C 536.75 564.35 534.94 567.10 532.53 569.31 C 526.63 558.95 522.31 547.80 516.84 537.22 C 514.19 532.46 513.15 526.65 508.88 522.95 C 498.92 523.06 488.95 522.96 478.99 522.99 C 477.15 522.93 475.38 523.43 473.64 523.96 M 626.00 526.07 C 619.25 573.03 612.75 620.02 606.00 666.98 C 605.65 668.56 605.92 671.02 607.98 671.14 C 615.98 671.37 624.00 671.30 632.01 671.17 C 633.91 671.25 634.32 668.94 634.65 667.51 C 638.98 637.71 642.88 607.84 647.34 578.06 C 647.85 578.05 648.87 578.05 649.38 578.05 C 666.53 607.71 683.65 637.40 700.76 667.09 C 702.00 668.88 703.40 671.37 705.94 671.22 C 713.61 671.27 721.29 671.39 728.96 671.09 C 730.16 664.98 730.78 658.78 731.75 652.64 C 737.52 611.05 743.48 569.48 749.28 527.90 C 749.43 526.26 749.34 524.62 749.28 522.99 C 740.85 523.05 732.42 522.93 724.00 523.03 C 722.64 522.90 721.65 524.26 721.41 525.46 C 717.55 553.83 713.51 582.22 709.66 610.61 C 709.23 611.05 708.36 611.94 707.93 612.38 C 706.52 610.92 705.20 609.36 704.23 607.58 C 689.28 581.01 674.22 554.51 659.23 527.96 C 658.16 525.84 656.84 523.33 654.18 523.08 C 645.78 522.91 637.36 522.99 628.96 523.04 C 627.32 522.93 626.10 524.55 626.00 526.07 M 195.41 564.20 C 187.71 565.58 180.02 568.05 173.59 572.64 C 154.70 584.47 143.28 606.87 144.05 629.06 C 144.79 639.20 147.46 649.76 154.50 657.44 C 163.12 667.83 176.80 672.92 190.06 673.20 C 203.60 673.59 217.86 671.21 228.96 662.95 C 234.43 658.73 240.07 654.43 243.90 648.58 C 244.59 646.00 241.16 645.17 239.42 644.31 C 234.48 642.65 230.24 638.78 224.92 638.51 C 222.43 640.49 220.36 642.94 217.76 644.79 C 209.57 651.62 197.88 654.40 187.62 651.19 C 182.55 649.74 177.84 646.21 176.03 641.12 C 174.29 636.12 173.47 630.38 175.59 625.37 C 176.11 623.92 177.81 624.22 179.02 624.12 C 201.35 624.10 223.68 624.17 246.01 624.09 C 248.86 624.57 249.68 621.35 249.93 619.18 C 250.61 610.48 250.79 601.50 248.12 593.08 C 245.06 582.52 237.52 573.32 227.62 568.48 C 217.78 563.30 206.23 562.95 195.41 564.20 M 287.58 569.74 C 279.71 573.82 272.04 579.90 268.99 588.51 C 269.22 589.15 269.68 590.44 269.91 591.08 C 275.85 592.85 281.99 593.82 287.95 595.49 C 290.40 596.11 293.87 597.25 295.26 594.31 C 301.07 584.76 313.47 580.57 324.09 583.15 C 328.23 583.95 331.86 587.62 331.94 591.95 C 332.13 596.16 332.16 600.50 330.74 604.53 C 330.15 604.84 328.97 605.45 328.38 605.75 C 323.25 606.03 318.17 606.87 313.03 606.88 C 301.20 607.94 289.31 610.38 278.57 615.57 C 271.38 619.73 264.07 624.80 260.40 632.53 C 256.27 640.94 255.50 651.46 260.07 659.86 C 263.93 666.73 271.05 671.54 278.87 672.57 C 290.80 674.40 303.75 672.70 314.00 666.00 C 317.45 663.86 319.90 660.39 323.71 658.79 C 324.10 662.90 323.34 667.19 324.94 671.13 C 333.40 671.41 341.86 671.17 350.32 671.26 C 350.85 669.51 351.23 667.72 351.47 665.91 C 354.21 646.52 357.00 627.13 359.77 607.74 C 360.80 600.30 362.36 592.68 360.85 585.20 C 359.36 577.35 353.14 571.19 346.11 567.89 C 340.10 565.21 333.46 564.26 326.95 563.76 C 313.64 563.22 299.80 563.95 287.58 569.74 M 422.50 574.52 C 419.60 576.63 417.39 579.60 414.19 581.29 C 413.96 576.07 415.96 571.03 415.31 565.80 C 405.83 565.49 396.33 565.56 386.85 565.76 C 382.25 595.77 378.37 625.88 374.02 655.93 C 373.56 659.97 372.55 663.96 372.60 668.05 C 372.41 669.93 374.24 671.43 376.05 671.20 C 384.67 671.28 393.32 671.39 401.94 671.07 C 403.00 668.35 403.25 665.44 403.62 662.57 C 406.11 645.40 408.37 628.19 410.85 611.02 C 411.14 608.55 411.76 606.09 413.15 604.00 C 417.54 597.56 424.62 593.43 432.03 591.41 C 438.66 590.53 445.42 591.12 452.00 592.13 C 453.76 583.88 454.45 575.44 455.86 567.12 C 456.72 565.18 454.79 563.64 452.97 563.82 C 441.78 562.24 430.97 567.66 422.50 574.52 M 310.41 590.33 C 308.59 591.84 306.45 592.92 304.63 594.41 C 303.08 596.80 302.08 599.48 300.78 602.00 C 308.64 600.33 316.72 599.82 324.74 599.90 C 325.87 596.74 326.90 592.47 323.62 590.21 C 319.59 587.87 314.63 589.16 310.41 590.33 M 604.99 599.46 C 605.30 608.07 604.34 616.77 605.56 625.32 C 606.67 614.69 608.14 604.08 609.99 593.56 C 608.25 595.47 606.59 597.44 604.99 599.46 M 543.63 673.98 C 543.73 686.03 543.74 698.13 545.37 710.09 C 546.91 721.68 549.02 733.21 549.70 744.90 C 550.26 753.51 549.70 762.15 549.89 770.77 C 550.81 769.29 551.10 767.59 551.25 765.91 C 553.08 747.32 553.93 728.66 554.40 709.99 C 555.16 699.39 554.82 688.77 554.93 678.15 C 550.79 678.09 546.73 676.79 543.63 673.98 M 268.21 676.26 C 263.08 690.19 257.57 703.99 252.88 718.07 C 266.02 703.63 281.24 691.28 296.35 678.97 C 287.00 681.19 277.05 679.75 268.21 676.26 Z" />
<path fill="#2d2c31" opacity="1.00" d=" M 404.81 71.87 C 409.06 65.85 413.44 59.79 419.13 55.02 C 415.92 60.65 411.30 65.27 407.66 70.60 C 399.66 81.98 392.02 93.76 386.54 106.58 C 379.60 129.43 372.41 152.22 366.34 175.32 C 366.76 168.76 368.58 162.41 370.28 156.09 C 373.87 143.48 377.28 130.81 381.57 118.41 C 386.31 101.61 394.83 86.11 404.81 71.87 Z" />
<path fill="#2d2c31" opacity="1.00" d=" M 524.03 236.33 C 526.87 236.12 529.71 234.80 532.57 235.41 C 532.13 237.43 528.68 236.52 527.07 237.00 C 508.40 240.10 491.08 248.17 473.51 254.82 L 472.80 255.17 C 479.96 250.44 487.94 247.23 495.86 244.04 C 504.94 240.51 514.27 237.27 524.03 236.33 Z" />
<path fill="#2d2c31" opacity="1.00" d=" M 596.88 240.31 C 611.25 244.05 625.53 251.31 634.07 263.89 C 629.52 259.77 625.13 255.42 619.94 252.08 C 612.74 247.25 604.50 244.36 596.88 240.31 Z" />
<path fill="#2d2c31" opacity="1.00" d=" M 580.62 289.97 C 578.88 289.13 578.91 286.28 581.04 286.07 C 581.62 287.11 581.90 288.23 581.86 289.43 C 581.55 289.56 580.93 289.83 580.62 289.97 Z" />
<path fill="#2d2c31" opacity="1.00" d=" M 573.46 321.02 C 579.13 321.81 584.73 323.02 590.38 323.98 C 592.19 324.46 593.86 325.30 595.51 326.20 C 590.12 327.55 584.60 326.18 579.40 324.69 C 577.10 324.07 575.12 322.68 573.46 321.02 Z" />
<path fill="#2d2c31" opacity="1.00" d=" M 488.14 326.61 C 490.12 326.12 492.12 325.63 494.13 325.24 C 490.17 328.46 484.99 329.26 480.06 329.54 C 474.97 329.78 469.99 331.13 464.89 331.11 C 472.33 328.17 480.40 328.18 488.14 326.61 Z" />
<path fill="#2d2c31" opacity="1.00" d=" M 388.47 346.37 C 389.16 345.08 389.87 343.80 390.58 342.53 C 392.43 343.62 394.27 344.74 396.10 345.87 C 395.52 347.00 394.95 348.14 394.38 349.28 C 395.28 350.10 396.19 350.93 397.10 351.75 C 396.43 353.57 396.05 355.86 394.07 356.76 C 393.27 356.64 391.66 356.40 390.85 356.28 C 389.24 359.16 388.37 362.83 385.21 364.47 C 384.54 364.12 383.21 363.44 382.55 363.09 C 381.62 359.43 384.60 356.58 385.99 353.48 C 384.31 352.62 382.64 351.75 380.97 350.88 L 381.13 350.53 C 382.10 348.47 383.07 346.40 384.03 344.34 C 385.50 345.01 386.99 345.69 388.47 346.37 Z" />
<path fill="#2d2c31" opacity="1.00" d=" M 591.61 377.61 C 597.76 374.71 603.04 369.93 606.39 364.00 C 611.65 394.24 620.75 423.66 626.75 453.76 C 629.87 469.69 631.35 485.92 635.59 501.64 C 608.88 498.90 582.42 494.25 555.84 490.55 C 546.68 489.69 536.14 488.66 529.87 481.03 C 525.60 475.03 522.71 468.20 519.21 461.75 C 515.90 455.63 512.32 449.65 508.91 443.59 C 509.43 446.22 509.96 448.85 510.48 451.49 C 508.49 451.23 506.51 450.98 504.53 450.73 C 503.38 446.65 502.16 442.59 500.79 438.59 C 498.22 437.75 493.76 438.41 493.20 434.93 C 492.65 432.03 494.88 429.90 497.01 428.38 C 496.85 428.00 496.53 427.23 496.37 426.85 C 501.08 418.19 506.34 409.84 511.26 401.30 C 517.49 402.80 523.68 404.43 530.04 405.33 C 536.74 406.84 544.27 409.59 550.68 405.63 C 564.85 397.08 576.82 385.20 591.61 377.61 M 586.35 388.29 C 575.20 395.40 565.45 404.51 554.03 411.19 C 547.81 415.07 539.99 414.58 533.17 412.77 C 527.21 410.97 520.92 410.70 514.97 408.85 C 513.90 410.70 512.55 412.62 512.89 414.90 C 513.28 418.61 511.88 422.15 509.87 425.19 C 513.18 426.47 516.65 428.57 517.67 432.22 C 518.48 435.87 518.28 439.88 516.12 443.06 C 522.78 453.63 527.87 465.08 534.28 475.79 C 539.37 483.05 549.13 483.15 557.08 484.14 C 580.44 487.39 603.70 491.40 627.13 494.14 C 623.46 477.52 622.12 460.47 617.95 443.95 C 613.14 422.13 607.07 400.61 602.58 378.73 C 597.34 382.21 591.53 384.72 586.35 388.29 Z" />
<path fill="#2d2c31" opacity="1.00" d=" M 345.57 386.09 C 354.29 387.40 363.08 388.28 371.89 388.49 C 367.96 390.21 364.94 393.58 360.77 394.79 C 355.33 396.42 349.67 397.13 344.06 397.94 C 344.66 394.00 345.24 390.06 345.57 386.09 Z" />
<path fill="#2d2c31" opacity="1.00" d=" M 470.02 394.37 C 480.79 399.93 491.94 404.84 502.08 411.54 C 500.55 415.31 498.55 418.88 495.92 421.99 C 488.63 418.13 481.10 414.78 473.60 411.37 C 471.98 405.80 471.03 400.08 470.02 394.37 Z" />
<path fill="#2d2c31" opacity="1.00" d=" M 435.33 466.45 C 431.91 459.72 429.34 452.60 426.09 445.79 C 431.70 450.93 438.64 458.18 435.33 466.45 Z" />
<path fill="#2d2c31" opacity="1.00" d=" M 411.41 454.20 C 418.00 462.09 424.96 469.69 431.16 477.90 C 434.35 481.90 435.26 487.10 435.36 492.09 C 427.58 479.69 419.61 467.41 411.27 455.37 C 411.30 455.08 411.38 454.49 411.41 454.20 Z" />
<path fill="#2d2c31" opacity="1.00" d=" M 21.68 545.58 C 34.07 524.68 59.29 514.00 82.99 514.99 C 103.72 513.88 125.49 522.01 138.77 538.31 C 141.44 541.36 143.28 546.04 140.86 549.78 C 138.07 553.73 133.42 555.73 129.60 558.51 C 125.41 561.03 121.69 564.61 116.87 565.89 C 112.31 566.67 108.77 563.06 105.68 560.30 C 100.84 555.82 94.52 553.18 88.06 552.21 C 80.60 551.49 72.51 551.73 66.00 555.90 C 62.88 557.92 59.88 561.66 61.24 565.59 C 63.23 569.13 67.27 570.66 70.83 572.11 C 82.90 576.45 95.18 580.22 107.16 584.85 C 117.41 588.93 127.27 595.59 132.41 605.64 C 137.40 615.93 136.78 627.99 133.77 638.76 C 129.62 653.42 117.89 664.96 104.41 671.46 C 91.56 677.77 77.10 679.57 62.96 680.06 C 51.30 679.40 39.41 678.19 28.57 673.52 C 16.38 668.35 5.46 659.13 0.00 646.90 L 0.00 640.46 C 2.68 634.92 8.88 632.91 13.65 629.65 C 18.63 626.69 24.21 622.08 30.35 624.66 C 37.02 627.98 40.19 635.59 46.61 639.34 C 52.42 642.90 59.40 643.22 66.01 643.61 C 72.12 643.37 78.55 642.99 83.97 639.85 C 87.46 638.00 89.39 633.79 88.96 629.94 C 87.86 626.58 84.31 625.13 81.38 623.73 C 67.57 618.16 52.86 614.95 39.38 608.53 C 30.62 604.14 22.86 597.16 18.83 588.10 C 12.52 574.61 14.57 558.33 21.68 545.58 M 61.31 524.20 C 46.35 528.50 32.19 538.15 25.54 552.60 C 20.70 563.85 19.81 577.71 26.51 588.41 C 30.38 595.87 37.85 600.47 45.19 603.99 C 57.53 608.98 70.41 612.48 82.88 617.13 C 88.09 619.37 94.37 622.42 95.45 628.63 C 96.25 634.85 93.76 641.90 88.13 645.14 C 82.15 648.84 74.95 650.07 68.00 649.98 C 59.27 650.17 50.03 649.37 42.45 644.64 C 37.25 641.59 33.91 636.42 29.88 632.12 C 28.37 630.24 25.49 630.19 23.57 631.47 C 18.01 634.70 12.69 638.36 6.96 641.29 C 6.66 642.35 5.83 643.36 6.10 644.52 C 10.07 652.58 16.54 659.35 24.29 663.88 C 36.24 670.86 50.31 673.38 64.01 673.23 C 79.18 673.33 94.77 670.19 107.70 661.96 C 117.69 655.67 125.80 645.71 128.19 633.96 C 130.01 625.14 130.36 615.32 125.74 607.27 C 120.82 599.04 112.21 593.79 103.42 590.53 C 93.02 586.71 82.55 583.10 72.03 579.62 C 68.21 578.38 64.46 576.84 61.00 574.79 C 57.27 572.50 54.08 568.64 54.24 564.05 C 53.93 557.02 59.35 551.16 65.50 548.55 C 75.02 544.39 86.12 544.31 95.99 547.30 C 102.79 549.23 108.60 553.53 113.64 558.35 C 115.06 560.32 117.22 558.78 118.70 557.79 C 124.37 553.83 130.32 550.26 135.86 546.12 C 131.64 538.51 124.50 533.02 116.88 529.10 C 100.04 519.90 79.55 519.09 61.31 524.20 Z" />
<path fill="#2d2c31" opacity="1.00" d=" M 791.59 530.69 C 803.42 521.47 818.06 515.87 833.03 514.98 C 840.33 515.25 847.73 514.31 854.93 515.89 C 871.05 518.72 886.36 528.06 894.87 542.25 C 899.58 549.88 902.03 558.99 901.39 567.95 C 901.07 572.28 897.03 575.38 892.91 575.73 C 884.25 576.64 875.70 578.65 867.01 579.07 C 862.98 579.67 859.33 576.57 858.34 572.81 C 857.07 567.96 856.59 562.66 853.33 558.62 C 848.90 552.27 840.02 550.70 832.96 552.80 C 826.41 554.34 821.09 558.97 817.42 564.45 C 809.11 576.56 805.99 591.37 804.61 605.76 C 803.40 614.68 803.53 624.01 806.48 632.60 C 808.48 638.57 814.87 642.30 821.02 642.03 C 824.43 641.96 827.98 642.40 831.27 641.27 C 839.64 638.66 845.94 631.66 849.74 624.00 C 843.21 623.73 836.63 624.44 830.14 623.54 C 826.94 623.34 824.04 620.95 823.15 617.91 C 822.28 611.96 824.11 606.11 824.25 600.18 C 824.53 596.03 826.16 590.86 830.87 590.07 C 850.91 589.89 870.96 590.08 891.00 589.98 C 896.38 589.33 901.11 594.74 900.04 600.01 C 896.90 622.97 893.58 645.92 890.33 668.86 C 890.21 673.79 885.91 677.79 881.07 677.94 C 876.32 678.09 870.63 678.72 867.02 674.93 C 863.98 672.15 863.81 667.78 862.73 664.06 C 853.42 673.04 840.85 678.51 827.95 679.31 C 822.36 680.27 816.65 680.29 811.08 679.28 C 796.44 678.18 782.07 671.74 772.08 660.87 C 762.78 651.25 757.79 638.18 756.13 625.06 C 755.86 619.69 754.57 614.38 754.98 608.98 C 755.94 598.89 756.64 588.69 759.66 578.96 C 765.13 560.16 775.86 542.58 791.59 530.69 M 831.03 521.73 C 814.19 523.32 798.50 531.78 786.77 543.76 C 774.33 557.18 766.33 574.45 763.37 592.46 C 761.01 607.04 760.81 622.32 765.42 636.50 C 768.61 646.99 775.20 656.58 784.31 662.79 C 798.24 672.75 816.44 675.09 833.00 672.07 C 845.46 670.05 856.28 662.39 864.45 653.04 C 865.07 653.01 866.32 652.96 866.94 652.94 C 868.06 657.54 869.04 662.19 870.19 666.79 C 870.65 668.26 870.86 670.01 872.23 670.98 C 875.80 671.55 879.45 671.20 883.05 671.11 C 883.90 668.52 884.21 665.80 884.54 663.12 C 886.91 646.48 889.30 629.85 891.56 613.20 C 892.23 607.70 893.49 602.25 893.45 596.70 C 872.94 595.48 852.40 596.19 831.87 595.98 C 830.29 602.88 829.70 610.02 829.52 617.09 C 839.04 617.24 848.57 616.93 858.09 617.26 C 857.36 620.47 857.06 623.82 855.78 626.88 C 850.87 637.10 841.96 646.21 830.42 648.25 C 820.75 650.15 809.10 648.56 802.91 640.09 C 798.28 633.00 797.68 624.17 797.40 615.94 C 797.97 608.22 798.10 600.43 799.72 592.82 C 802.19 579.05 806.91 565.02 816.80 554.75 C 824.35 546.73 836.44 543.55 847.02 546.47 C 855.36 548.70 861.57 556.25 863.22 564.59 C 864.11 567.37 863.95 570.78 866.07 572.98 C 875.30 571.47 884.59 570.30 893.83 568.82 C 895.44 568.22 895.07 566.33 895.15 564.99 C 894.75 554.83 890.03 545.24 883.33 537.75 C 869.86 524.27 849.63 518.98 831.03 521.73 Z" />
<path fill="#2d2c31" opacity="1.00" d=" M 199.51 582.59 C 204.54 581.69 210.14 581.80 214.58 584.64 C 218.65 587.48 221.62 591.95 222.13 596.94 C 222.85 600.57 222.98 605.34 219.62 607.74 C 217.24 608.83 214.55 608.43 212.01 608.52 C 201.06 608.37 190.10 608.70 179.17 608.37 L 178.32 607.73 C 179.62 596.15 188.06 585.47 199.51 582.59 M 186.67 601.95 C 196.50 602.05 206.33 602.01 216.16 601.97 C 215.99 598.03 215.00 593.79 211.81 591.20 C 209.01 588.19 204.58 588.88 200.92 589.15 C 194.55 590.90 189.37 596.02 186.67 601.95 Z" />
<path fill="#2d2c31" opacity="1.00" d=" M 299.85 626.03 C 307.09 622.78 315.01 621.34 322.90 621.00 C 324.76 621.12 326.98 619.88 328.58 621.30 C 328.00 626.71 327.37 632.13 326.40 637.50 C 324.44 643.52 318.99 647.66 313.61 650.54 C 309.44 652.86 304.60 652.87 299.99 653.41 C 296.78 652.92 293.15 652.77 290.77 650.24 C 286.55 646.75 286.63 640.38 288.77 635.76 C 290.59 630.89 295.21 627.85 299.85 626.03 M 300.25 633.22 C 296.35 635.05 293.09 639.37 294.18 643.84 C 295.21 645.93 297.74 646.61 299.87 646.95 C 307.30 646.85 315.06 643.60 319.20 637.21 C 320.62 634.34 320.79 631.05 321.14 627.93 C 313.87 627.84 306.73 630.04 300.25 633.22 Z" />
</g>
<g id="#ddddddff">
<path fill="#dddddd" opacity="1.00" d=" M 667.04 9.68 C 682.89 7.48 698.95 5.75 714.97 6.77 C 718.21 6.70 720.67 8.99 722.36 11.52 C 713.69 31.39 704.73 51.15 695.73 70.87 C 684.86 94.72 673.12 118.37 665.93 143.65 C 665.06 147.08 664.04 150.48 662.76 153.78 C 656.15 148.62 649.31 143.52 641.50 140.33 C 628.73 135.60 616.37 129.65 603.17 126.17 C 581.81 102.16 559.35 78.61 543.35 50.51 C 559.25 41.86 576.18 35.27 593.17 29.09 C 617.12 20.38 641.78 13.37 667.04 9.68 Z" />
<path fill="#dddddd" opacity="1.00" d=" M 333.01 60.72 C 335.92 61.69 336.98 64.91 338.94 67.00 C 341.62 70.09 344.09 73.84 347.96 75.49 C 357.51 72.60 367.03 69.54 376.66 66.89 C 375.15 68.30 373.38 69.40 371.59 70.41 C 367.40 72.73 363.33 75.26 359.42 78.03 C 359.80 78.69 360.57 80.03 360.95 80.70 C 361.43 80.35 362.39 79.65 362.87 79.31 C 350.82 108.39 339.02 137.76 331.51 168.39 C 329.62 172.09 328.72 176.53 325.50 179.37 C 323.38 181.26 322.88 184.21 321.84 186.72 L 321.73 186.71 C 320.58 186.59 319.44 186.48 318.29 186.36 C 314.71 184.99 311.05 183.83 307.31 183.00 C 301.23 181.71 295.58 179.06 289.61 177.41 C 281.77 175.17 273.82 173.40 265.93 171.40 C 270.82 171.30 273.87 167.15 277.11 164.10 C 280.70 160.61 284.57 156.47 283.77 151.00 C 279.20 152.17 275.83 155.48 272.79 158.87 C 271.01 156.72 268.91 154.71 266.13 153.98 C 257.18 151.06 247.95 149.11 239.04 146.05 C 230.00 143.63 221.34 139.90 212.16 138.04 C 212.19 143.10 215.12 147.21 217.10 151.64 C 212.41 152.15 207.82 150.93 203.53 149.15 C 202.78 150.25 202.05 151.35 201.31 152.45 C 205.33 156.30 208.83 160.68 211.32 165.68 C 209.90 165.54 208.49 165.41 207.08 165.28 C 212.62 173.33 220.53 179.20 228.45 184.72 C 228.11 186.33 227.22 188.14 228.40 189.64 C 230.38 192.92 233.21 195.54 235.71 198.41 C 235.38 198.82 234.70 199.66 234.37 200.07 C 238.03 205.48 241.27 211.43 246.64 215.38 C 253.06 220.23 260.56 223.35 267.44 227.47 C 281.55 234.92 295.92 242.03 310.97 247.40 C 306.70 254.37 302.37 261.33 298.88 268.73 C 297.96 270.57 297.39 272.64 296.05 274.24 C 292.73 273.74 289.68 272.23 286.41 271.51 C 283.61 270.83 280.14 270.04 279.07 266.96 C 277.95 263.56 273.30 261.47 274.51 257.43 C 277.28 254.09 282.33 255.11 286.08 253.69 C 268.97 240.36 252.23 226.52 236.76 211.31 C 217.10 192.53 199.15 172.06 182.19 150.84 C 166.94 131.41 152.45 111.29 140.26 89.78 C 137.24 84.91 137.41 77.89 141.89 73.94 C 147.03 69.27 154.54 69.89 160.99 69.85 C 195.27 67.76 229.68 66.42 264.02 68.00 C 288.39 68.48 312.62 71.31 336.84 73.95 C 335.04 69.72 333.03 65.42 333.01 60.72 Z" />
<path fill="#dddddd" opacity="1.00" d=" M 565.02 137.92 C 569.22 136.63 573.66 136.44 578.02 136.81 C 583.27 137.26 588.56 137.06 593.77 137.93 C 605.33 146.26 616.30 155.55 625.50 166.49 C 637.92 180.82 648.01 196.96 657.80 213.16 C 659.41 215.84 660.74 218.68 661.86 221.60 C 664.97 235.46 665.93 250.23 673.14 262.79 C 678.12 270.95 685.16 277.54 691.19 284.89 C 692.25 286.01 692.68 287.49 692.93 288.98 C 689.65 287.97 687.10 285.58 684.53 283.43 C 678.63 278.32 673.93 272.04 669.48 265.67 C 672.90 282.94 678.77 299.56 683.29 316.55 C 685.75 325.92 689.09 335.19 689.71 344.94 C 689.98 348.57 691.16 352.16 690.73 355.83 C 690.18 358.34 685.89 358.13 685.56 355.59 C 684.53 344.95 679.67 335.29 675.61 325.58 C 669.48 310.47 661.61 296.11 656.07 280.75 C 655.02 282.40 654.15 284.26 652.58 285.49 C 650.68 286.52 648.59 287.11 646.58 287.85 C 647.34 300.04 649.28 312.11 651.34 324.14 C 652.10 328.80 652.54 333.55 652.24 338.27 C 652.13 339.73 650.33 339.96 649.20 339.81 C 646.42 334.81 644.48 329.40 641.75 324.38 C 639.34 336.24 637.43 348.20 634.90 360.04 C 633.89 364.26 634.78 368.60 635.31 372.83 C 637.14 402.27 638.22 431.86 642.95 461.03 C 644.42 474.78 646.04 488.52 647.29 502.29 C 647.63 507.18 647.81 512.08 648.18 516.97 C 644.94 516.97 641.72 516.97 638.50 517.00 C 637.78 511.83 636.77 506.71 635.59 501.64 C 631.35 485.92 629.87 469.69 626.75 453.76 C 620.75 423.66 611.65 394.24 606.39 364.00 C 609.73 354.57 614.25 345.23 614.38 335.03 C 614.42 326.47 615.66 317.97 617.33 309.59 C 618.08 305.62 619.85 301.71 619.32 297.60 C 619.00 296.11 618.50 294.68 618.05 293.25 C 616.22 287.79 615.07 282.13 613.64 276.57 C 613.52 279.39 613.45 282.23 613.38 285.06 C 610.26 284.80 607.15 284.49 604.04 284.15 C 603.22 279.38 602.62 274.58 601.98 269.78 C 600.78 261.27 599.73 252.72 599.49 244.12 C 598.57 244.27 597.66 244.43 596.76 244.58 C 593.06 255.48 589.52 266.47 586.86 277.67 C 585.69 281.19 584.86 284.80 584.29 288.47 C 583.46 288.77 582.65 289.09 581.86 289.43 C 581.90 288.23 581.62 287.11 581.04 286.07 C 577.71 279.46 574.31 272.86 570.32 266.63 C 569.35 264.53 566.94 265.27 565.12 265.28 C 552.19 266.61 539.22 264.85 526.28 265.67 C 523.76 260.78 521.71 255.65 519.17 250.77 C 518.85 254.94 519.53 259.13 519.24 263.29 C 518.80 266.24 515.20 266.04 512.96 266.28 C 506.92 266.28 500.87 266.80 495.12 268.76 C 492.68 269.37 490.34 270.31 488.07 271.37 C 490.07 276.40 492.76 281.15 494.20 286.39 C 489.75 283.74 487.34 278.99 484.52 274.85 C 480.40 268.42 477.27 261.44 473.51 254.82 C 491.08 248.17 508.40 240.10 527.07 237.00 C 528.68 236.52 532.13 237.43 532.57 235.41 C 529.71 234.80 526.87 236.12 524.03 236.33 C 514.27 237.27 504.94 240.51 495.86 244.04 C 487.94 247.23 479.96 250.44 472.80 255.17 C 472.57 255.31 472.11 255.59 471.89 255.72 C 471.82 251.54 468.98 248.30 467.08 244.82 C 464.16 239.78 462.13 234.31 460.05 228.89 C 456.60 234.41 454.04 240.40 451.57 246.40 C 449.01 252.72 445.09 258.88 445.51 265.96 C 445.89 274.58 446.93 283.17 447.71 291.76 C 447.96 294.07 448.28 296.38 448.78 298.66 C 451.58 308.73 453.10 319.44 459.25 328.19 C 459.57 332.75 462.91 336.19 465.07 339.99 C 473.52 352.87 482.49 365.60 493.57 376.37 C 496.64 379.52 500.80 381.79 502.60 386.00 C 485.70 378.03 472.33 364.32 460.88 349.84 C 462.18 360.68 464.86 371.30 466.98 382.00 C 467.22 384.40 468.70 386.28 471.02 386.99 C 470.36 386.86 469.04 386.60 468.37 386.47 C 468.93 389.10 469.51 391.73 470.02 394.37 C 471.03 400.08 471.98 405.80 473.60 411.37 C 477.08 424.03 478.72 437.11 482.57 449.67 C 483.90 456.31 485.49 462.94 488.00 469.24 C 490.43 481.84 495.19 493.86 498.30 506.29 C 498.81 510.12 494.15 511.95 491.00 511.84 C 489.53 512.23 489.04 510.57 488.56 509.60 C 486.37 504.25 484.93 498.63 482.59 493.35 C 481.11 490.06 478.32 487.66 476.03 484.96 C 473.41 482.04 471.41 478.63 468.84 475.67 C 468.46 475.57 467.69 475.36 467.30 475.26 L 467.01 475.18 C 462.47 462.75 456.99 450.66 453.00 438.03 C 450.85 431.42 447.87 425.09 445.71 418.50 C 444.53 409.43 441.15 400.85 439.04 391.98 C 435.79 393.56 432.54 395.14 429.27 396.70 C 429.84 396.96 430.42 397.23 431.00 397.51 L 428.91 397.10 C 430.51 404.30 434.60 411.49 432.86 419.02 C 429.41 424.29 422.18 423.13 417.04 425.55 C 419.20 431.92 420.71 439.28 426.31 443.63 C 431.03 447.61 435.43 452.23 438.25 457.76 C 440.57 462.36 438.54 467.31 437.66 471.98 C 438.38 476.34 441.05 480.47 440.43 485.01 C 438.92 488.97 438.96 493.26 438.39 497.42 C 438.25 498.53 438.11 499.64 437.97 500.76 C 437.31 500.72 435.99 500.65 435.33 500.62 C 435.33 497.77 435.40 494.93 435.36 492.09 C 435.26 487.10 434.35 481.90 431.16 477.90 C 424.96 469.69 418.00 462.09 411.41 454.20 C 411.38 454.49 411.30 455.08 411.27 455.37 C 409.95 460.52 410.79 466.04 409.11 471.06 C 407.97 470.39 407.32 469.42 407.17 468.16 C 406.12 462.21 407.20 456.20 407.87 450.28 C 408.93 442.00 411.43 434.00 413.29 425.89 C 413.00 424.52 412.73 423.16 412.47 421.80 C 411.11 421.09 408.47 421.13 408.64 419.01 C 407.98 412.10 411.65 405.76 413.45 399.27 C 411.39 397.31 409.57 395.06 408.76 392.28 C 400.19 391.21 391.56 390.55 383.00 389.35 C 377.32 388.32 372.37 391.99 367.97 395.02 C 359.81 398.96 351.54 403.07 342.55 404.72 C 340.79 409.69 339.79 415.40 335.52 418.95 C 337.91 410.86 338.56 402.27 336.93 393.96 C 336.41 391.17 334.37 389.07 332.71 386.91 C 332.36 386.48 331.66 385.63 331.31 385.20 C 331.97 384.04 332.22 382.83 332.06 381.57 C 330.74 372.32 326.80 363.78 322.80 355.45 C 322.69 355.12 322.45 354.46 322.33 354.13 C 319.96 357.94 317.05 361.40 314.83 365.32 C 313.70 363.26 312.59 361.19 311.27 359.26 C 304.70 370.00 300.15 381.88 295.74 393.64 C 291.64 405.17 288.07 416.93 285.87 428.98 C 285.52 430.88 284.67 432.62 283.84 434.36 C 283.51 430.27 283.61 426.17 283.81 422.09 C 283.26 423.36 282.71 424.63 282.16 425.91 C 281.99 423.52 281.81 421.14 281.77 418.75 C 282.23 414.42 282.52 410.09 282.83 405.75 C 283.75 400.03 283.27 394.21 283.76 388.45 C 284.37 381.64 283.84 374.80 284.24 367.98 C 284.83 358.59 285.49 349.21 285.75 339.81 C 283.69 348.15 281.28 356.43 280.17 364.97 C 278.98 370.10 279.71 375.87 276.97 380.52 C 276.39 373.94 278.33 367.40 278.97 360.87 C 282.52 345.05 280.72 328.58 284.56 312.81 C 275.06 314.30 265.17 314.45 255.80 312.09 C 254.40 311.93 254.28 310.54 253.99 309.45 C 267.51 309.00 280.23 303.53 291.59 296.55 C 295.35 293.26 299.80 290.84 303.34 287.30 C 312.52 277.51 321.61 267.63 330.80 257.85 C 335.74 252.45 340.37 246.66 346.27 242.24 C 350.00 239.36 353.76 236.45 356.79 232.81 C 361.25 227.31 367.02 223.10 371.77 217.87 C 372.93 216.95 374.08 214.66 375.85 215.87 C 386.34 220.23 397.56 222.74 408.88 223.62 C 428.00 225.30 447.28 227.44 466.44 225.14 C 468.78 224.84 469.87 222.67 470.92 220.85 C 472.93 220.08 474.83 218.95 475.92 217.01 C 487.52 198.94 500.21 181.38 515.64 166.35 C 522.07 160.22 528.02 153.38 535.74 148.79 C 544.66 143.23 555.03 140.83 565.02 137.92 M 596.88 240.31 C 604.50 244.36 612.74 247.25 619.94 252.08 C 625.13 255.42 629.52 259.77 634.07 263.89 C 625.53 251.31 611.25 244.05 596.88 240.31 M 370.44 269.41 C 364.94 280.38 360.30 291.75 355.46 303.02 C 363.26 319.24 371.73 335.19 381.13 350.53 L 380.97 350.88 C 382.64 351.75 384.31 352.62 385.99 353.48 C 384.60 356.58 381.62 359.43 382.55 363.09 C 383.21 363.44 384.54 364.12 385.21 364.47 C 388.37 362.83 389.24 359.16 390.85 356.28 C 391.66 356.40 393.27 356.64 394.07 356.76 C 396.05 355.86 396.43 353.57 397.10 351.75 L 397.60 352.21 C 401.62 341.19 404.41 329.75 408.58 318.79 C 410.67 309.73 411.01 299.98 407.96 291.09 C 405.70 284.55 402.88 278.21 399.91 271.97 C 399.28 269.87 396.77 270.19 395.08 269.86 C 387.69 269.32 380.42 267.43 372.98 267.69 C 371.71 267.63 370.87 268.20 370.44 269.41 M 408.27 353.96 C 410.81 353.44 413.36 352.62 415.99 352.76 C 418.19 355.27 419.77 358.24 421.68 360.98 C 422.18 358.67 423.17 356.19 421.98 353.93 C 419.68 348.53 418.01 342.88 417.18 337.06 C 413.95 342.55 411.38 348.40 408.27 353.96 M 345.57 386.09 C 345.24 390.06 344.66 394.00 344.06 397.94 C 349.67 397.13 355.33 396.42 360.77 394.79 C 364.94 393.58 367.96 390.21 371.89 388.49 C 363.08 388.28 354.29 387.40 345.57 386.09 M 435.33 466.45 C 438.64 458.18 431.70 450.93 426.09 445.79 C 429.34 452.60 431.91 459.72 435.33 466.45 Z" />
<path fill="#dddddd" opacity="1.00" d=" M 570.74 338.29 C 570.81 335.54 571.28 332.37 573.93 330.89 C 577.31 330.68 575.85 335.00 574.77 336.75 C 574.22 338.57 572.15 337.99 570.74 338.29 Z" />
<path fill="#dddddd" opacity="1.00" d=" M 557.99 361.94 C 559.51 360.61 561.50 360.69 563.39 360.86 C 560.20 364.93 555.85 367.92 552.09 371.43 L 550.84 371.32 C 551.33 367.21 554.89 364.30 557.99 361.94 Z" />
<path fill="#dddddd" opacity="1.00" d=" M 61.31 524.20 C 79.55 519.09 100.04 519.90 116.88 529.10 C 124.50 533.02 131.64 538.51 135.86 546.12 C 130.32 550.26 124.37 553.83 118.70 557.79 C 117.22 558.78 115.06 560.32 113.64 558.35 C 108.60 553.53 102.79 549.23 95.99 547.30 C 86.12 544.31 75.02 544.39 65.50 548.55 C 59.35 551.16 53.93 557.02 54.24 564.05 C 54.08 568.64 57.27 572.50 61.00 574.79 C 64.46 576.84 68.21 578.38 72.03 579.62 C 82.55 583.10 93.02 586.71 103.42 590.53 C 112.21 593.79 120.82 599.04 125.74 607.27 C 130.36 615.32 130.01 625.14 128.19 633.96 C 125.80 645.71 117.69 655.67 107.70 661.96 C 94.77 670.19 79.18 673.33 64.01 673.23 C 50.31 673.38 36.24 670.86 24.29 663.88 C 16.54 659.35 10.07 652.58 6.10 644.52 C 5.83 643.36 6.66 642.35 6.96 641.29 C 12.69 638.36 18.01 634.70 23.57 631.47 C 25.49 630.19 28.37 630.24 29.88 632.12 C 33.91 636.42 37.25 641.59 42.45 644.64 C 50.03 649.37 59.27 650.17 68.00 649.98 C 74.95 650.07 82.15 648.84 88.13 645.14 C 93.76 641.90 96.25 634.85 95.45 628.63 C 94.37 622.42 88.09 619.37 82.88 617.13 C 70.41 612.48 57.53 608.98 45.19 603.99 C 37.85 600.47 30.38 595.87 26.51 588.41 C 19.81 577.71 20.70 563.85 25.54 552.60 C 32.19 538.15 46.35 528.50 61.31 524.20 Z" />
<path fill="#dddddd" opacity="1.00" d=" M 831.03 521.73 C 849.63 518.98 869.86 524.27 883.33 537.75 C 890.03 545.24 894.75 554.83 895.15 564.99 C 895.07 566.33 895.44 568.22 893.83 568.82 C 884.59 570.30 875.30 571.47 866.07 572.98 C 863.95 570.78 864.11 567.37 863.22 564.59 C 861.57 556.25 855.36 548.70 847.02 546.47 C 836.44 543.55 824.35 546.73 816.80 554.75 C 806.91 565.02 802.19 579.05 799.72 592.82 C 798.10 600.43 797.97 608.22 797.40 615.94 C 797.68 624.17 798.28 633.00 802.91 640.09 C 809.10 648.56 820.75 650.15 830.42 648.25 C 841.96 646.21 850.87 637.10 855.78 626.88 C 857.06 623.82 857.36 620.47 858.09 617.26 C 848.57 616.93 839.04 617.24 829.52 617.09 C 829.70 610.02 830.29 602.88 831.87 595.98 C 852.40 596.19 872.94 595.48 893.45 596.70 C 893.49 602.25 892.23 607.70 891.56 613.20 C 889.30 629.85 886.91 646.48 884.54 663.12 C 884.21 665.80 883.90 668.52 883.05 671.11 C 879.45 671.20 875.80 671.55 872.23 670.98 C 870.86 670.01 870.65 668.26 870.19 666.79 C 869.04 662.19 868.06 657.54 866.94 652.94 C 866.32 652.96 865.07 653.01 864.45 653.04 C 856.28 662.39 845.46 670.05 833.00 672.07 C 816.44 675.09 798.24 672.75 784.31 662.79 C 775.20 656.58 768.61 646.99 765.42 636.50 C 760.81 622.32 761.01 607.04 763.37 592.46 C 766.33 574.45 774.33 557.18 786.77 543.76 C 798.50 531.78 814.19 523.32 831.03 521.73 Z" />
<path fill="#dddddd" opacity="1.00" d=" M 473.64 523.96 C 475.38 523.43 477.15 522.93 478.99 522.99 C 488.95 522.96 498.92 523.06 508.88 522.95 C 513.15 526.65 514.19 532.46 516.84 537.22 C 522.31 547.80 526.63 558.95 532.53 569.31 C 534.94 567.10 536.75 564.35 538.71 561.76 C 547.70 549.81 556.89 538.03 565.78 526.00 C 566.87 524.24 568.75 522.82 570.93 523.01 C 580.27 522.96 589.62 523.02 598.97 523.00 C 599.32 523.41 600.01 524.24 600.36 524.65 C 600.26 525.40 600.05 526.89 599.95 527.64 C 587.17 543.62 574.29 559.53 561.45 575.47 C 556.75 581.68 551.34 587.37 547.12 593.92 C 558.10 615.83 569.80 637.37 580.89 659.23 C 582.72 663.01 585.76 666.59 585.28 671.08 C 573.54 671.38 561.79 671.34 550.05 671.10 C 548.33 668.98 547.01 666.58 545.93 664.09 C 541.36 653.45 535.67 643.34 531.06 632.71 C 528.77 628.31 527.05 623.57 524.09 619.55 C 520.46 623.11 517.76 627.45 514.61 631.42 C 508.39 639.29 502.50 647.41 496.29 655.28 C 492.13 660.52 488.48 666.19 483.89 671.08 C 473.70 671.24 463.45 671.58 453.29 670.95 C 450.19 668.85 453.88 665.26 455.06 662.98 C 472.27 641.33 489.47 619.66 506.76 598.06 C 507.89 596.58 509.39 594.67 508.20 592.77 C 498.22 572.23 487.38 552.13 477.15 531.72 C 475.81 529.21 474.55 526.66 473.64 523.96 Z" />
<path fill="#dddddd" opacity="1.00" d=" M 626.00 526.07 C 626.10 524.55 627.32 522.93 628.96 523.04 C 637.36 522.99 645.78 522.91 654.18 523.08 C 656.84 523.33 658.16 525.84 659.23 527.96 C 674.22 554.51 689.28 581.01 704.23 607.58 C 705.20 609.36 706.52 610.92 707.93 612.38 C 708.36 611.94 709.23 611.05 709.66 610.61 C 713.51 582.22 717.55 553.83 721.41 525.46 C 721.65 524.26 722.64 522.90 724.00 523.03 C 732.42 522.93 740.85 523.05 749.28 522.99 C 749.34 524.62 749.43 526.26 749.28 527.90 C 743.48 569.48 737.52 611.05 731.75 652.64 C 730.78 658.78 730.16 664.98 728.96 671.09 C 721.29 671.39 713.61 671.27 705.94 671.22 C 703.40 671.37 702.00 668.88 700.76 667.09 C 683.65 637.40 666.53 607.71 649.38 578.05 C 648.87 578.05 647.85 578.05 647.34 578.06 C 642.88 607.84 638.98 637.71 634.65 667.51 C 634.32 668.94 633.91 671.25 632.01 671.17 C 624.00 671.30 615.98 671.37 607.98 671.14 C 605.92 671.02 605.65 668.56 606.00 666.98 C 612.75 620.02 619.25 573.03 626.00 526.07 Z" />
<path fill="#dddddd" opacity="1.00" d=" M 195.41 564.20 C 206.23 562.95 217.78 563.30 227.62 568.48 C 237.52 573.32 245.06 582.52 248.12 593.08 C 250.79 601.50 250.61 610.48 249.93 619.18 C 249.68 621.35 248.86 624.57 246.01 624.09 C 223.68 624.17 201.35 624.10 179.02 624.12 C 177.81 624.22 176.11 623.92 175.59 625.37 C 173.47 630.38 174.29 636.12 176.03 641.12 C 177.84 646.21 182.55 649.74 187.62 651.19 C 197.88 654.40 209.57 651.62 217.76 644.79 C 220.36 642.94 222.43 640.49 224.92 638.51 C 230.24 638.78 234.48 642.65 239.42 644.31 C 241.16 645.17 244.59 646.00 243.90 648.58 C 240.07 654.43 234.43 658.73 228.96 662.95 C 217.86 671.21 203.60 673.59 190.06 673.20 C 176.80 672.92 163.12 667.83 154.50 657.44 C 147.46 649.76 144.79 639.20 144.05 629.06 C 143.28 606.87 154.70 584.47 173.59 572.64 C 180.02 568.05 187.71 565.58 195.41 564.20 M 199.51 582.59 C 188.06 585.47 179.62 596.15 178.32 607.73 L 179.17 608.37 C 190.10 608.70 201.06 608.37 212.01 608.52 C 214.55 608.43 217.24 608.83 219.62 607.74 C 222.98 605.34 222.85 600.57 222.13 596.94 C 221.62 591.95 218.65 587.48 214.58 584.64 C 210.14 581.80 204.54 581.69 199.51 582.59 Z" />
<path fill="#dddddd" opacity="1.00" d=" M 287.58 569.74 C 299.80 563.95 313.64 563.22 326.95 563.76 C 333.46 564.26 340.10 565.21 346.11 567.89 C 353.14 571.19 359.36 577.35 360.85 585.20 C 362.36 592.68 360.80 600.30 359.77 607.74 C 357.00 627.13 354.21 646.52 351.47 665.91 C 351.23 667.72 350.85 669.51 350.32 671.26 C 341.86 671.17 333.40 671.41 324.94 671.13 C 323.34 667.19 324.10 662.90 323.71 658.79 C 319.90 660.39 317.45 663.86 314.00 666.00 C 303.75 672.70 290.80 674.40 278.87 672.57 C 271.05 671.54 263.93 666.73 260.07 659.86 C 255.50 651.46 256.27 640.94 260.40 632.53 C 264.07 624.80 271.38 619.73 278.57 615.57 C 289.31 610.38 301.20 607.94 313.03 606.88 C 318.17 606.87 323.25 606.03 328.38 605.75 C 328.97 605.45 330.15 604.84 330.74 604.53 C 332.16 600.50 332.13 596.16 331.94 591.95 C 331.86 587.62 328.23 583.95 324.09 583.15 C 313.47 580.57 301.07 584.76 295.26 594.31 C 293.87 597.25 290.40 596.11 287.95 595.49 C 281.99 593.82 275.85 592.85 269.91 591.08 C 269.68 590.44 269.22 589.15 268.99 588.51 C 272.04 579.90 279.71 573.82 287.58 569.74 M 299.85 626.03 C 295.21 627.85 290.59 630.89 288.77 635.76 C 286.63 640.38 286.55 646.75 290.77 650.24 C 293.15 652.77 296.78 652.92 299.99 653.41 C 304.60 652.87 309.44 652.86 313.61 650.54 C 318.99 647.66 324.44 643.52 326.40 637.50 C 327.37 632.13 328.00 626.71 328.58 621.30 C 326.98 619.88 324.76 621.12 322.90 621.00 C 315.01 621.34 307.09 622.78 299.85 626.03 Z" />
<path fill="#dddddd" opacity="1.00" d=" M 422.50 574.52 C 430.97 567.66 441.78 562.24 452.97 563.82 C 454.79 563.64 456.72 565.18 455.86 567.12 C 454.45 575.44 453.76 583.88 452.00 592.13 C 445.42 591.12 438.66 590.53 432.03 591.41 C 424.62 593.43 417.54 597.56 413.15 604.00 C 411.76 606.09 411.14 608.55 410.85 611.02 C 408.37 628.19 406.11 645.40 403.62 662.57 C 403.25 665.44 403.00 668.35 401.94 671.07 C 393.32 671.39 384.67 671.28 376.05 671.20 C 374.24 671.43 372.41 669.93 372.60 668.05 C 372.55 663.96 373.56 659.97 374.02 655.93 C 378.37 625.88 382.25 595.77 386.85 565.76 C 396.33 565.56 405.83 565.49 415.31 565.80 C 415.96 571.03 413.96 576.07 414.19 581.29 C 417.39 579.60 419.60 576.63 422.50 574.52 Z" />
</g>
<g id="#6d6d6fff">
<path fill="#6d6d6f" opacity="1.00" d=" M 722.36 11.52 L 722.44 11.33 C 722.39 15.56 722.97 19.90 721.77 24.02 C 718.02 38.07 709.81 50.46 706.16 64.53 C 709.20 62.57 711.31 59.59 713.91 57.14 C 714.89 57.91 715.88 58.68 716.88 59.45 C 715.65 61.68 714.21 63.78 712.54 65.71 C 700.77 79.98 691.59 96.17 683.61 112.81 C 678.23 124.02 671.86 134.71 666.05 145.70 C 666.02 145.18 665.96 144.16 665.93 143.65 C 673.12 118.37 684.86 94.72 695.73 70.87 C 704.73 51.15 713.69 31.39 722.36 11.52 Z" />
<path fill="#6d6d6f" opacity="1.00" d=" M 444.63 43.50 C 449.62 41.29 455.04 43.31 460.19 43.76 C 471.27 46.97 483.16 47.89 493.39 53.67 C 509.01 62.59 523.57 73.23 537.73 84.28 C 550.58 94.55 561.56 106.85 573.16 118.46 C 562.87 120.54 552.21 118.92 541.94 121.13 C 528.17 124.27 514.40 127.55 501.12 132.38 C 489.18 136.11 477.35 140.43 466.36 146.47 C 448.60 156.01 430.60 165.34 414.33 177.33 C 409.41 180.55 404.01 182.97 399.09 186.19 C 393.44 189.45 388.71 194.09 382.80 196.93 C 371.47 202.68 361.65 210.87 350.76 217.33 C 351.76 211.29 352.03 205.12 351.23 199.05 C 350.51 202.08 349.89 205.13 349.19 208.17 C 347.81 202.88 348.74 197.38 348.27 192.01 C 347.43 183.72 347.12 175.24 348.74 167.02 C 349.79 161.40 349.86 155.67 350.78 150.03 C 351.65 144.33 352.75 138.67 353.30 132.92 C 353.96 126.26 355.84 119.74 355.61 113.00 C 355.32 109.14 358.89 106.73 360.91 103.90 C 366.69 96.59 373.56 90.20 379.05 82.67 C 370.72 88.69 365.13 97.58 357.83 104.68 C 361.88 93.06 367.87 82.17 371.59 70.41 C 373.38 69.40 375.15 68.30 376.66 66.89 L 377.09 66.51 C 385.23 63.33 392.23 57.92 400.03 54.04 C 404.49 51.97 408.55 49.05 413.14 47.29 C 417.08 47.92 420.92 49.78 424.99 49.05 C 431.72 47.96 438.27 45.92 444.63 43.50 M 404.81 71.87 C 394.83 86.11 386.31 101.61 381.57 118.41 C 377.28 130.81 373.87 143.48 370.28 156.09 C 368.58 162.41 366.76 168.76 366.34 175.32 C 372.41 152.22 379.60 129.43 386.54 106.58 C 392.02 93.76 399.66 81.98 407.66 70.60 C 411.30 65.27 415.92 60.65 419.13 55.02 C 413.44 59.79 409.06 65.85 404.81 71.87 M 433.93 88.75 C 434.24 86.25 434.85 83.70 434.21 81.19 C 430.35 85.19 429.51 91.02 427.80 96.10 C 426.53 93.84 426.62 91.23 426.57 88.73 C 425.70 90.49 424.79 92.23 423.89 93.97 C 422.64 93.02 421.40 92.06 420.16 91.11 C 417.58 96.69 415.19 102.36 412.59 107.94 C 412.17 106.59 411.79 105.22 411.44 103.85 C 410.94 104.48 409.94 105.73 409.44 106.36 C 408.84 106.47 407.64 106.68 407.03 106.79 C 400.58 116.25 398.20 127.69 394.41 138.34 C 392.09 144.59 390.73 151.16 388.36 157.40 C 383.71 167.05 378.51 176.46 372.57 185.39 C 371.23 187.41 370.15 189.58 369.16 191.79 C 369.85 191.65 371.23 191.39 371.92 191.25 C 379.46 187.27 385.61 181.10 393.16 177.10 C 398.83 173.20 404.67 169.47 411.24 167.23 C 413.86 166.59 413.66 163.38 413.97 161.26 C 414.43 164.78 415.78 168.11 417.35 171.27 C 417.27 169.32 417.15 167.38 416.95 165.44 C 417.05 164.99 417.25 164.09 417.35 163.63 L 418.42 164.83 C 419.44 162.59 419.47 159.52 421.99 158.31 C 422.51 158.93 423.56 160.17 424.09 160.79 C 424.56 159.13 425.02 157.47 425.47 155.81 C 425.59 157.34 425.72 158.86 425.89 160.40 C 427.25 159.77 428.69 159.03 429.25 157.53 C 430.45 154.74 432.45 152.14 432.76 149.06 C 433.00 129.17 436.63 109.55 439.41 89.92 C 439.84 86.47 439.43 83.01 439.11 79.58 C 437.02 82.43 435.76 85.75 433.93 88.75 Z" />
<path fill="#6d6d6f" opacity="1.00" d=" M 528.07 126.14 C 541.36 122.32 555.36 123.02 568.99 123.96 C 578.39 125.16 587.85 126.35 597.03 128.74 C 609.83 133.31 622.51 138.29 634.81 144.10 C 642.63 148.36 649.81 153.69 657.09 158.81 C 670.41 167.93 679.68 181.57 687.65 195.34 C 689.68 200.43 693.03 205.25 693.33 210.85 C 685.32 196.45 676.99 181.54 663.75 171.23 C 652.37 162.77 642.13 151.77 628.10 147.76 C 622.94 146.25 618.24 143.51 613.08 141.97 C 606.79 140.01 600.24 139.07 593.77 137.93 C 588.56 137.06 583.27 137.26 578.02 136.81 C 573.66 136.44 569.22 136.63 565.02 137.92 C 555.03 140.83 544.66 143.23 535.74 148.79 C 528.02 153.38 522.07 160.22 515.64 166.35 C 514.27 166.45 513.04 167.08 512.07 168.03 C 500.91 177.93 490.64 189.08 483.13 202.04 C 480.28 206.95 478.81 212.78 474.66 216.84 C 471.79 219.07 468.84 221.21 465.84 223.25 C 462.63 224.00 459.29 223.58 456.02 223.56 C 443.27 222.85 430.47 223.89 417.75 222.38 C 408.46 222.35 399.65 219.28 390.64 217.50 C 386.43 216.64 382.66 214.51 378.75 212.84 C 387.82 203.47 398.38 195.70 408.64 187.70 C 430.43 171.18 453.07 155.44 477.97 143.94 C 494.13 136.62 510.93 130.68 528.07 126.14 Z" />
<path fill="#6d6d6f" opacity="1.00" d=" M 272.79 158.87 C 275.83 155.48 279.20 152.17 283.77 151.00 C 284.57 156.47 280.70 160.61 277.11 164.10 C 273.87 167.15 270.82 171.30 265.93 171.40 C 265.36 170.12 264.36 168.70 265.39 167.35 C 267.28 164.08 270.28 161.66 272.79 158.87 Z" />
<path fill="#6d6d6f" opacity="1.00" d=" M 302.12 186.95 C 303.62 185.35 305.37 184.02 307.31 183.00 C 311.05 183.83 314.71 184.99 318.29 186.36 C 314.51 187.59 310.90 189.42 306.96 190.10 C 304.63 190.82 303.48 188.27 302.12 186.95 Z" />
<path fill="#6d6d6f" opacity="1.00" d=" M 488.07 271.37 C 490.34 270.31 492.68 269.37 495.12 268.76 L 496.97 268.30 C 496.51 268.89 495.59 270.08 495.13 270.67 C 500.48 269.47 505.97 270.39 511.38 269.92 C 514.09 269.68 516.83 269.86 519.47 270.57 C 518.99 271.64 518.51 272.70 518.04 273.77 C 518.46 275.31 518.86 276.86 519.27 278.41 C 523.78 277.43 528.34 276.70 532.95 276.50 C 531.39 277.95 530.10 279.98 527.93 280.56 C 518.89 283.15 509.51 284.14 500.38 286.34 C 482.99 289.60 466.28 295.85 448.78 298.66 C 448.28 296.38 447.96 294.07 447.71 291.76 C 451.65 290.11 455.59 288.39 459.28 286.19 C 467.22 281.43 476.05 278.50 484.52 274.85 C 487.34 278.99 489.75 283.74 494.20 286.39 C 492.76 281.15 490.07 276.40 488.07 271.37 Z" />
<path fill="#6d6d6f" opacity="1.00" d=" M 601.98 269.78 C 602.62 274.58 603.22 279.38 604.04 284.15 C 607.15 284.49 610.26 284.80 613.38 285.06 C 613.45 282.23 613.52 279.39 613.64 276.57 C 615.07 282.13 616.22 287.79 618.05 293.25 C 616.43 292.71 614.82 292.18 613.27 291.52 C 610.94 290.28 608.78 288.64 606.21 287.95 C 599.01 286.22 591.26 285.41 584.29 288.47 C 584.86 284.80 585.69 281.19 586.86 277.67 C 591.38 274.16 597.39 273.31 601.98 269.78 Z" />
<path fill="#6d6d6f" opacity="1.00" d=" M 507.95 400.64 C 509.05 400.85 510.15 401.07 511.26 401.30 C 506.34 409.84 501.08 418.19 496.37 426.85 C 496.53 427.23 496.85 428.00 497.01 428.38 C 494.88 429.90 492.65 432.03 493.20 434.93 C 493.76 438.41 498.22 437.75 500.79 438.59 C 502.16 442.59 503.38 446.65 504.53 450.73 C 506.51 450.98 508.49 451.23 510.48 451.49 C 509.96 448.85 509.43 446.22 508.91 443.59 C 512.32 449.65 515.90 455.63 519.21 461.75 C 522.71 468.20 525.60 475.03 529.87 481.03 C 536.14 488.66 546.68 489.69 555.84 490.55 C 582.42 494.25 608.88 498.90 635.59 501.64 C 636.77 506.71 637.78 511.83 638.50 517.00 C 634.08 517.12 629.64 516.69 625.25 517.21 C 621.78 518.33 619.87 521.88 619.43 525.31 C 616.85 543.79 614.27 562.29 611.56 580.74 C 607.70 586.69 602.52 591.70 598.18 597.31 C 590.62 606.29 583.22 615.40 575.83 624.52 C 575.07 624.47 574.32 624.44 573.57 624.41 L 573.29 624.40 C 573.64 617.35 570.52 610.64 565.69 605.66 L 565.79 605.32 C 569.35 591.94 574.16 578.93 578.12 565.67 C 586.62 554.38 596.00 543.72 604.52 532.43 C 608.27 527.64 607.48 519.05 600.99 517.16 C 593.68 516.73 586.34 517.14 579.02 517.00 C 574.76 517.15 570.44 516.58 566.23 517.34 C 562.05 519.02 559.73 523.20 557.04 526.56 C 545.81 519.51 536.07 510.53 525.87 502.15 C 517.41 495.61 508.77 489.31 500.46 482.58 C 495.68 478.76 491.65 474.13 488.00 469.24 C 485.49 462.94 483.90 456.31 482.57 449.67 C 485.96 439.97 491.00 430.98 495.92 421.99 C 498.55 418.88 500.55 415.31 502.08 411.54 C 503.83 407.80 505.99 404.27 507.95 400.64 Z" />
<path fill="#6d6d6f" opacity="1.00" d=" M 276.98 424.65 C 277.96 418.19 279.87 411.64 282.83 405.75 C 282.52 410.09 282.23 414.42 281.77 418.75 C 281.15 422.13 281.55 426.47 278.13 428.45 C 277.71 427.19 277.33 425.92 276.98 424.65 Z" />
<path fill="#6d6d6f" opacity="1.00" d=" M 647.29 502.29 C 654.49 502.94 661.85 501.75 668.96 503.27 C 671.58 503.76 675.13 506.31 673.43 509.31 C 670.65 513.79 666.70 517.41 663.19 521.32 C 661.28 519.77 659.55 517.62 657.01 517.17 C 654.08 516.81 651.12 516.98 648.18 516.97 C 647.81 512.08 647.63 507.18 647.29 502.29 Z" />
</g>
<g id="#fbf7f7ff">
<path fill="#fbf7f7" opacity="1.00" d=" M 433.93 88.75 C 435.76 85.75 437.02 82.43 439.11 79.58 C 439.43 83.01 439.84 86.47 439.41 89.92 C 436.63 109.55 433.00 129.17 432.76 149.06 C 432.45 152.14 430.45 154.74 429.25 157.53 C 428.69 159.03 427.25 159.77 425.89 160.40 C 425.72 158.86 425.59 157.34 425.47 155.81 C 425.02 157.47 424.56 159.13 424.09 160.79 C 423.56 160.17 422.51 158.93 421.99 158.31 C 419.47 159.52 419.44 162.59 418.42 164.83 L 417.35 163.63 C 417.03 161.45 416.68 159.25 416.81 157.03 C 418.56 136.44 421.86 115.93 427.80 96.10 C 429.51 91.02 430.35 85.19 434.21 81.19 C 434.85 83.70 434.24 86.25 433.93 88.75 Z" />
<path fill="#fbf7f7" opacity="1.00" d=" M 418.68 127.67 C 416.85 140.16 415.52 152.83 416.95 165.44 C 417.15 167.38 417.27 169.32 417.35 171.27 C 415.78 168.11 414.43 164.78 413.97 161.26 C 412.73 149.83 416.17 138.69 418.68 127.67 Z" />
<path fill="#fbf7f7" opacity="1.00" d=" M 212.16 138.04 C 221.34 139.90 230.00 143.63 239.04 146.05 C 247.95 149.11 257.18 151.06 266.13 153.98 C 268.91 154.71 271.01 156.72 272.79 158.87 C 270.28 161.66 267.28 164.08 265.39 167.35 C 264.36 168.70 265.36 170.12 265.93 171.40 C 273.82 173.40 281.77 175.17 289.61 177.41 C 295.58 179.06 301.23 181.71 307.31 183.00 C 305.37 184.02 303.62 185.35 302.12 186.95 C 303.48 188.27 304.63 190.82 306.96 190.10 C 310.90 189.42 314.51 187.59 318.29 186.36 C 319.44 186.48 320.58 186.59 321.73 186.71 C 320.47 190.52 319.12 194.31 318.06 198.19 C 318.80 198.47 320.29 199.03 321.03 199.31 C 322.10 202.15 323.51 204.93 323.93 207.97 C 323.18 214.78 320.49 221.32 320.42 228.23 C 321.30 228.23 323.07 228.24 323.95 228.25 C 319.38 234.46 315.02 240.83 310.97 247.40 C 295.92 242.03 281.55 234.92 267.44 227.47 C 260.56 223.35 253.06 220.23 246.64 215.38 C 241.27 211.43 238.03 205.48 234.37 200.07 C 234.70 199.66 235.38 198.82 235.71 198.41 C 233.21 195.54 230.38 192.92 228.40 189.64 C 227.22 188.14 228.11 186.33 228.45 184.72 C 220.53 179.20 212.62 173.33 207.08 165.28 C 208.49 165.41 209.90 165.54 211.32 165.68 C 208.83 160.68 205.33 156.30 201.31 152.45 C 202.05 151.35 202.78 150.25 203.53 149.15 C 207.82 150.93 212.41 152.15 217.10 151.64 C 215.12 147.21 212.19 143.10 212.16 138.04 Z" />
<path fill="#fbf7f7" opacity="1.00" d=" M 451.57 246.40 C 454.04 240.40 456.60 234.41 460.05 228.89 C 462.13 234.31 464.16 239.78 467.08 244.82 C 468.98 248.30 471.82 251.54 471.89 255.72 C 472.11 255.59 472.57 255.31 472.80 255.17 L 473.51 254.82 C 477.27 261.44 480.40 268.42 484.52 274.85 C 476.05 278.50 467.22 281.43 459.28 286.19 C 455.59 288.39 451.65 290.11 447.71 291.76 C 446.93 283.17 445.89 274.58 445.51 265.96 C 445.09 258.88 449.01 252.72 451.57 246.40 Z" />
<path fill="#fbf7f7" opacity="1.00" d=" M 596.76 244.58 C 597.66 244.43 598.57 244.27 599.49 244.12 C 599.73 252.72 600.78 261.27 601.98 269.78 C 597.39 273.31 591.38 274.16 586.86 277.67 C 589.52 266.47 593.06 255.48 596.76 244.58 Z" />
<path fill="#fbf7f7" opacity="1.00" d=" M 519.24 263.29 C 519.53 259.13 518.85 254.94 519.17 250.77 C 521.71 255.65 523.76 260.78 526.28 265.67 C 539.22 264.85 552.19 266.61 565.12 265.28 C 566.94 265.27 569.35 264.53 570.32 266.63 C 574.31 272.86 577.71 279.46 581.04 286.07 C 578.91 286.28 578.88 289.13 580.62 289.97 C 577.28 292.71 574.12 296.19 573.85 300.74 C 573.19 307.45 571.94 314.34 573.46 321.02 C 575.12 322.68 577.10 324.07 579.40 324.69 C 584.60 326.18 590.12 327.55 595.51 326.20 C 593.86 325.30 592.19 324.46 590.38 323.98 C 592.62 322.76 594.98 321.62 596.82 319.80 C 604.46 311.84 609.76 301.93 613.27 291.52 C 614.82 292.18 616.43 292.71 618.05 293.25 C 618.50 294.68 619.00 296.11 619.32 297.60 C 615.80 307.39 613.82 317.65 612.63 327.97 C 612.37 337.66 611.74 347.70 607.62 356.62 C 604.64 361.49 602.26 367.05 597.49 370.49 C 593.06 374.02 587.60 375.85 582.88 378.92 C 573.04 385.19 563.82 392.41 554.97 400.00 C 552.97 401.60 551.14 403.60 548.67 404.44 C 539.21 405.95 530.01 402.59 520.99 400.22 C 513.25 398.37 505.84 395.34 498.05 393.75 C 488.96 391.82 480.13 388.85 471.02 386.99 C 468.70 386.28 467.22 384.40 466.98 382.00 C 464.86 371.30 462.18 360.68 460.88 349.84 C 472.33 364.32 485.70 378.03 502.60 386.00 C 500.80 381.79 496.64 379.52 493.57 376.37 C 482.49 365.60 473.52 352.87 465.07 339.99 C 462.91 336.19 459.57 332.75 459.25 328.19 C 460.75 329.73 462.60 331.18 464.89 331.11 C 469.99 331.13 474.97 329.78 480.06 329.54 C 484.99 329.26 490.17 328.46 494.13 325.24 C 492.12 325.63 490.12 326.12 488.14 326.61 C 492.72 324.66 497.58 321.42 498.03 315.97 C 498.87 306.10 499.23 296.19 500.38 286.34 C 509.51 284.14 518.89 283.15 527.93 280.56 C 530.10 279.98 531.39 277.95 532.95 276.50 C 528.34 276.70 523.78 277.43 519.27 278.41 C 518.86 276.86 518.46 275.31 518.04 273.77 C 518.51 272.70 518.99 271.64 519.47 270.57 C 516.83 269.86 514.09 269.68 511.38 269.92 C 505.97 270.39 500.48 269.47 495.13 270.67 C 495.59 270.08 496.51 268.89 496.97 268.30 L 495.12 268.76 C 500.87 266.80 506.92 266.28 512.96 266.28 C 515.20 266.04 518.80 266.24 519.24 263.29 M 570.74 338.29 C 572.15 337.99 574.22 338.57 574.77 336.75 C 575.85 335.00 577.31 330.68 573.93 330.89 C 571.28 332.37 570.81 335.54 570.74 338.29 M 557.99 361.94 C 554.89 364.30 551.33 367.21 550.84 371.32 L 552.09 371.43 C 555.85 367.92 560.20 364.93 563.39 360.86 C 561.50 360.69 559.51 360.61 557.99 361.94 Z" />
<path fill="#fbf7f7" opacity="1.00" d=" M 370.44 269.41 C 370.87 268.20 371.71 267.63 372.98 267.69 C 380.42 267.43 387.69 269.32 395.08 269.86 C 396.77 270.19 399.28 269.87 399.91 271.97 C 402.88 278.21 405.70 284.55 407.96 291.09 C 411.01 299.98 410.67 309.73 408.58 318.79 C 404.41 329.75 401.62 341.19 397.60 352.21 L 397.10 351.75 C 396.19 350.93 395.28 350.10 394.38 349.28 C 394.95 348.14 395.52 347.00 396.10 345.87 C 394.27 344.74 392.43 343.62 390.58 342.53 C 389.87 343.80 389.16 345.08 388.47 346.37 C 386.99 345.69 385.50 345.01 384.03 344.34 C 383.07 346.40 382.10 348.47 381.13 350.53 C 371.73 335.19 363.26 319.24 355.46 303.02 C 360.30 291.75 364.94 280.38 370.44 269.41 Z" />
<path fill="#fbf7f7" opacity="1.00" d=" M 408.27 353.96 C 411.38 348.40 413.95 342.55 417.18 337.06 C 418.01 342.88 419.68 348.53 421.98 353.93 C 423.17 356.19 422.18 358.67 421.68 360.98 C 419.77 358.24 418.19 355.27 415.99 352.76 C 413.36 352.62 410.81 353.44 408.27 353.96 Z" />
<path fill="#fbf7f7" opacity="1.00" d=" M 473.60 411.37 C 481.10 414.78 488.63 418.13 495.92 421.99 C 491.00 430.98 485.96 439.97 482.57 449.67 C 478.72 437.11 477.08 424.03 473.60 411.37 Z" />
<path fill="#fbf7f7" opacity="1.00" d=" M 488.00 469.24 C 491.65 474.13 495.68 478.76 500.46 482.58 C 508.77 489.31 517.41 495.61 525.87 502.15 C 536.07 510.53 545.81 519.51 557.04 526.56 C 555.60 528.57 554.06 530.49 552.52 532.41 L 552.13 532.60 C 544.00 536.56 536.49 541.65 528.65 546.13 L 528.49 546.22 C 525.24 538.94 521.60 531.85 518.30 524.60 C 516.76 521.13 514.12 517.54 510.08 517.05 C 503.51 516.90 496.94 517.06 490.37 516.98 C 485.33 510.23 480.05 503.64 475.34 496.67 C 472.33 489.67 469.84 482.44 467.30 475.26 C 467.69 475.36 468.46 475.57 468.84 475.67 C 471.41 478.63 473.41 482.04 476.03 484.96 C 478.32 487.66 481.11 490.06 482.59 493.35 C 484.93 498.63 486.37 504.25 488.56 509.60 C 489.04 510.57 489.53 512.23 491.00 511.84 C 494.15 511.95 498.81 510.12 498.30 506.29 C 495.19 493.86 490.43 481.84 488.00 469.24 Z" />
</g>
<g id="#a5a5a6ff">
<path fill="#a5a5a6" opacity="1.00" d=" M 423.89 93.97 C 424.79 92.23 425.70 90.49 426.57 88.73 C 426.62 91.23 426.53 93.84 427.80 96.10 C 421.86 115.93 418.56 136.44 416.81 157.03 C 416.68 159.25 417.03 161.45 417.35 163.63 C 417.25 164.09 417.05 164.99 416.95 165.44 C 415.52 152.83 416.85 140.16 418.68 127.67 C 416.17 138.69 412.73 149.83 413.97 161.26 C 413.66 163.38 413.86 166.59 411.24 167.23 C 404.67 169.47 398.83 173.20 393.16 177.10 C 385.61 181.10 379.46 187.27 371.92 191.25 C 371.23 191.39 369.85 191.65 369.16 191.79 C 370.15 189.58 371.23 187.41 372.57 185.39 C 378.51 176.46 383.71 167.05 388.36 157.40 C 390.73 151.16 392.09 144.59 394.41 138.34 C 398.20 127.69 400.58 116.25 407.03 106.79 C 407.64 106.68 408.84 106.47 409.44 106.36 C 409.94 105.73 410.94 104.48 411.44 103.85 C 411.79 105.22 412.17 106.59 412.59 107.94 C 415.19 102.36 417.58 96.69 420.16 91.11 C 421.40 92.06 422.64 93.02 423.89 93.97 Z" />
<path fill="#a5a5a6" opacity="1.00" d=" M 593.77 137.93 C 600.24 139.07 606.79 140.01 613.08 141.97 C 618.24 143.51 622.94 146.25 628.10 147.76 C 642.13 151.77 652.37 162.77 663.75 171.23 C 676.99 181.54 685.32 196.45 693.33 210.85 C 695.18 215.11 696.52 219.57 698.12 223.92 C 688.61 228.73 677.78 231.88 667.09 230.06 C 663.83 228.68 663.48 224.41 661.86 221.60 C 660.74 218.68 659.41 215.84 657.80 213.16 C 648.01 196.96 637.92 180.82 625.50 166.49 C 616.30 155.55 605.33 146.26 593.77 137.93 Z" />
<path fill="#a5a5a6" opacity="1.00" d=" M 619.32 297.60 C 619.85 301.71 618.08 305.62 617.33 309.59 C 615.66 317.97 614.42 326.47 614.38 335.03 C 614.25 345.23 609.73 354.57 606.39 364.00 C 603.04 369.93 597.76 374.71 591.61 377.61 C 576.82 385.20 564.85 397.08 550.68 405.63 C 544.27 409.59 536.74 406.84 530.04 405.33 C 523.68 404.43 517.49 402.80 511.26 401.30 C 510.15 401.07 509.05 400.85 507.95 400.64 C 505.99 404.27 503.83 407.80 502.08 411.54 C 491.94 404.84 480.79 399.93 470.02 394.37 C 469.51 391.73 468.93 389.10 468.37 386.47 C 469.04 386.60 470.36 386.86 471.02 386.99 C 480.13 388.85 488.96 391.82 498.05 393.75 C 505.84 395.34 513.25 398.37 520.99 400.22 C 530.01 402.59 539.21 405.95 548.67 404.44 C 551.14 403.60 552.97 401.60 554.97 400.00 C 563.82 392.41 573.04 385.19 582.88 378.92 C 587.60 375.85 593.06 374.02 597.49 370.49 C 602.26 367.05 604.64 361.49 607.62 356.62 C 611.74 347.70 612.37 337.66 612.63 327.97 C 613.82 317.65 615.80 307.39 619.32 297.60 Z" />
<path fill="#a5a5a6" opacity="1.00" d=" M 280.17 364.97 C 281.28 356.43 283.69 348.15 285.75 339.81 C 285.49 349.21 284.83 358.59 284.24 367.98 C 283.84 374.80 284.37 381.64 283.76 388.45 C 278.45 381.84 281.63 372.69 280.17 364.97 Z" />
<path fill="#a5a5a6" opacity="1.00" d=" M 322.80 355.45 C 326.80 363.78 330.74 372.32 332.06 381.57 C 324.69 375.41 321.03 364.83 322.80 355.45 Z" />
<path fill="#a5a5a6" opacity="1.00" d=" M 295.74 393.64 C 300.15 381.88 304.70 370.00 311.27 359.26 C 312.59 361.19 313.70 363.26 314.83 365.32 C 301.00 386.86 290.27 410.72 285.95 436.07 C 285.78 439.11 283.31 442.21 280.02 441.81 C 276.57 442.04 273.84 438.20 274.82 434.99 C 275.44 431.52 276.32 428.11 276.98 424.65 C 277.33 425.92 277.71 427.19 278.13 428.45 C 281.55 426.47 281.15 422.13 281.77 418.75 C 281.81 421.14 281.99 423.52 282.16 425.91 C 282.71 424.63 283.26 423.36 283.81 422.09 C 283.61 426.17 283.51 430.27 283.84 434.36 C 284.67 432.62 285.52 430.88 285.87 428.98 C 288.07 416.93 291.64 405.17 295.74 393.64 Z" />
<path fill="#a5a5a6" opacity="1.00" d=" M 332.71 386.91 C 334.37 389.07 336.41 391.17 336.93 393.96 C 338.56 402.27 337.91 410.86 335.52 418.95 C 332.53 423.50 327.84 426.41 323.39 429.34 C 317.47 433.98 310.30 436.79 302.97 438.22 C 301.02 438.65 299.09 437.96 297.20 437.60 C 297.20 436.44 297.24 435.28 297.33 434.13 C 301.40 430.91 306.09 428.48 309.85 424.84 C 320.72 414.49 327.00 400.52 332.71 386.91 Z" />
<path fill="#a5a5a6" opacity="1.00" d=" M 429.27 396.70 C 432.54 395.14 435.79 393.56 439.04 391.98 C 441.15 400.85 444.53 409.43 445.71 418.50 C 442.90 413.80 441.53 408.45 439.27 403.49 C 437.66 400.26 434.05 398.97 431.00 397.51 C 430.42 397.23 429.84 396.96 429.27 396.70 Z" />
<path fill="#a5a5a6" opacity="1.00" d=" M 528.65 546.13 C 536.49 541.65 544.00 536.56 552.13 532.60 C 546.40 541.08 539.89 549.00 533.74 557.17 C 532.01 553.50 530.22 549.86 528.65 546.13 Z" />
<path fill="#a5a5a6" opacity="1.00" d=" M 557.71 590.75 C 564.61 582.47 571.10 573.85 578.12 565.67 C 574.16 578.93 569.35 591.94 565.79 605.32 C 562.36 601.53 558.87 597.77 555.71 593.75 C 556.05 592.57 556.99 591.70 557.71 590.75 Z" />
<path fill="#a5a5a6" opacity="1.00" d=" M 543.63 673.98 C 546.73 676.79 550.79 678.09 554.93 678.15 C 554.82 688.77 555.16 699.39 554.40 709.99 C 553.93 728.66 553.08 747.32 551.25 765.91 C 551.10 767.59 550.81 769.29 549.89 770.77 C 549.70 762.15 550.26 753.51 549.70 744.90 C 549.02 733.21 546.91 721.68 545.37 710.09 C 543.74 698.13 543.73 686.03 543.63 673.98 Z" />
</g>
<g id="#6d92deff">
<path fill="#6d92de" opacity="1.00" d=" M 584.29 288.47 C 591.26 285.41 599.01 286.22 606.21 287.95 C 608.78 288.64 610.94 290.28 613.27 291.52 C 609.76 301.93 604.46 311.84 596.82 319.80 C 594.98 321.62 592.62 322.76 590.38 323.98 C 584.73 323.02 579.13 321.81 573.46 321.02 C 571.94 314.34 573.19 307.45 573.85 300.74 C 574.12 296.19 577.28 292.71 580.62 289.97 C 580.93 289.83 581.55 289.56 581.86 289.43 C 582.65 289.09 583.46 288.77 584.29 288.47 Z" />
<path fill="#6d92de" opacity="1.00" d=" M 448.78 298.66 C 466.28 295.85 482.99 289.60 500.38 286.34 C 499.23 296.19 498.87 306.10 498.03 315.97 C 497.58 321.42 492.72 324.66 488.14 326.61 C 480.40 328.18 472.33 328.17 464.89 331.11 C 462.60 331.18 460.75 329.73 459.25 328.19 C 453.10 319.44 451.58 308.73 448.78 298.66 Z" />
<path fill="#6d92de" opacity="1.00" d=" M 391.80 427.99 C 397.69 434.96 402.27 443.03 407.87 450.28 C 407.20 456.20 406.12 462.21 407.17 468.16 C 407.32 469.42 407.97 470.39 409.11 471.06 C 410.79 466.04 409.95 460.52 411.27 455.37 C 419.61 467.41 427.58 479.69 435.36 492.09 C 435.40 494.93 435.33 497.77 435.33 500.62 C 435.99 500.65 437.31 500.72 437.97 500.76 C 438.11 499.64 438.25 498.53 438.39 497.42 C 451.13 517.10 461.16 538.54 468.14 560.92 C 468.98 563.41 471.05 565.17 472.89 566.93 C 482.66 575.89 491.22 586.04 499.81 596.11 C 483.67 616.20 467.65 636.40 451.57 656.53 C 448.88 660.19 445.43 664.09 445.91 668.96 C 445.35 674.41 450.99 678.13 455.93 677.99 C 464.89 677.92 473.88 678.27 482.82 677.80 C 488.61 677.38 491.89 672.27 494.98 668.04 C 504.37 655.92 513.45 643.56 523.03 631.59 C 524.57 635.40 527.25 638.93 527.96 642.98 C 508.73 667.02 488.57 690.34 469.26 714.33 C 456.86 729.28 445.19 744.81 432.70 759.69 C 419.40 775.74 406.92 792.46 393.59 808.48 C 392.28 800.05 392.38 791.50 392.25 782.99 C 391.96 747.99 395.17 713.11 396.37 678.16 C 400.04 678.02 404.17 677.62 406.81 674.74 C 409.35 671.77 409.56 667.63 410.10 663.93 C 412.28 647.97 414.55 632.02 416.79 616.06 C 417.14 612.54 417.47 608.69 420.04 606.00 C 424.41 601.28 430.54 598.01 436.98 597.41 C 441.98 597.71 446.98 598.35 452.00 598.02 C 455.34 598.09 458.11 595.14 458.77 592.02 C 459.67 587.75 460.07 583.40 460.74 579.09 C 461.45 573.79 462.73 568.41 461.80 563.06 C 460.71 559.90 457.55 557.99 454.42 557.34 C 443.04 555.35 431.74 559.89 422.44 566.14 C 420.81 562.77 418.19 559.07 414.04 559.05 C 405.69 558.89 397.34 559.04 388.99 558.98 C 384.42 558.56 380.15 562.49 379.91 567.02 C 377.04 586.89 374.27 606.79 371.54 626.68 C 369.08 629.21 365.77 630.70 362.86 632.65 C 364.44 621.80 365.91 610.94 367.56 600.10 C 369.01 590.28 368.10 579.33 361.39 571.49 C 353.76 561.75 341.08 558.25 329.26 557.35 C 338.90 541.29 348.05 524.94 356.17 508.05 C 368.74 481.68 379.99 454.70 391.80 427.99 Z" />
<path fill="#6d92de" opacity="1.00" d=" M 310.41 590.33 C 314.63 589.16 319.59 587.87 323.62 590.21 C 326.90 592.47 325.87 596.74 324.74 599.90 C 316.72 599.82 308.64 600.33 300.78 602.00 C 302.08 599.48 303.08 596.80 304.63 594.41 C 306.45 592.92 308.59 591.84 310.41 590.33 Z" />
<path fill="#6d92de" opacity="1.00" d=" M 575.83 624.52 C 583.22 615.40 590.62 606.29 598.18 597.31 C 598.61 620.53 598.38 643.75 598.54 666.98 C 598.59 692.63 599.15 718.36 596.49 743.91 C 596.23 745.03 595.91 746.14 595.54 747.25 C 595.13 737.31 594.41 727.38 592.69 717.58 C 590.00 704.31 588.27 690.86 585.09 677.69 C 587.69 676.68 590.37 675.18 591.40 672.41 C 593.07 668.68 591.30 664.69 589.58 661.35 C 585.21 653.04 581.00 644.66 576.59 636.38 C 574.58 632.70 574.28 628.45 573.57 624.41 C 574.32 624.44 575.07 624.47 575.83 624.52 Z" />
<path fill="#6d92de" opacity="1.00" d=" M 300.25 633.22 C 306.73 630.04 313.87 627.84 321.14 627.93 C 320.79 631.05 320.62 634.34 319.20 637.21 C 315.06 643.60 307.30 646.85 299.87 646.95 C 297.74 646.61 295.21 645.93 294.18 643.84 C 293.09 639.37 296.35 635.05 300.25 633.22 Z" />
<path fill="#6d92de" opacity="1.00" d=" M 268.21 676.26 C 277.05 679.75 287.00 681.19 296.35 678.97 C 281.24 691.28 266.02 703.63 252.88 718.07 C 257.57 703.99 263.08 690.19 268.21 676.26 Z" />
</g>
</svg>
